ply
format ascii 1.0
element vertex 500
property float x
property float y
property float z
property uchar red
property uchar green
property uchar blue
end_header
289 164 0 0 0 255
290 74 0 0 0 255
232 372 0 0 0 255
353 99 0 0 0 255
311 203 0 0 0 255
268 254 0 0 0 255
404 226 0 0 0 255
253 143 0 0 0 255
356 99 0 0 0 255
295 249 0 0 0 255
246 404 0 0 0 255
235 155 0 0 0 255
353 254 0 0 0 255
245 55 0 0 0 255
238 376 0 0 0 255
295 259 0 0 0 255
403 199 0 0 0 255
387 288 0 0 0 255
238 238 0 0 0 255
394 136 0 0 0 255
369 296 0 0 0 255
368 316 0 0 0 255
216 374 0 0 0 255
428 269 0 0 0 255
367 41 0 0 0 255
222 364 0 0 0 255
274 150 0 0 0 255
312 221 0 0 0 255
279 333 0 0 0 255
316 135 0 0 0 255
308 349 0 0 0 255
396 436 0 0 0 255
327 167 0 0 0 255
297 156 0 0 0 255
398 79 0 0 0 255
316 154 0 0 0 255
262 391 0 0 0 255
268 149 0 0 0 255
282 343 0 0 0 255
283 325 0 0 0 255
395 438 0 0 0 255
347 112 0 0 0 255
213 379 0 0 0 255
417 228 0 0 0 255
239 342 0 0 0 255
361 165 0 0 0 255
411 349 0 0 0 255
392 153 0 0 0 255
305 126 0 0 0 255
341 198 0 0 0 255
360 403 0 0 0 255
283 339 0 0 0 255
413 412 0 0 0 255
231 173 0 0 0 255
366 258 0 0 0 255
249 327 0 0 0 255
377 33 0 0 0 255
305 315 0 0 0 255
404 301 0 0 0 255
297 404 0 0 0 255
265 342 0 0 0 255
241 196 0 0 0 255
298 171 0 0 0 255
268 355 0 0 0 255
344 272 0 0 0 255
401 220 0 0 0 255
332 186 0 0 0 255
359 395 0 0 0 255
389 290 0 0 0 255
262 337 0 0 0 255
300 25 0 0 0 255
313 68 0 0 0 255
389 255 0 0 0 255
329 414 0 0 0 255
394 42 0 0 0 255
371 428 0 0 0 255
404 252 0 0 0 255
359 261 0 0 0 255
323 359 0 0 0 255
249 338 0 0 0 255
280 327 0 0 0 255
255 227 0 0 0 255
251 353 0 0 0 255
252 145 0 0 0 255
388 52 0 0 0 255
242 242 0 0 0 255
349 104 0 0 0 255
276 407 0 0 0 255
240 155 0 0 0 255
390 121 0 0 0 255
287 362 0 0 0 255
348 357 0 0 0 255
298 307 0 0 0 255
310 132 0 0 0 255
364 282 0 0 0 255
280 95 0 0 0 255
242 398 0 0 0 255
367 362 0 0 0 255
311 186 0 0 0 255
245 114 0 0 0 255
258 366 0 0 0 255
389 244 0 0 0 255
360 338 0 0 0 255
326 172 0 0 0 255
324 258 0 0 0 255
246 32 0 0 0 255
415 394 0 0 0 255
323 121 0 0 0 255
269 175 0 0 0 255
245 261 0 0 0 255
289 315 0 0 0 255
278 88 0 0 0 255
342 77 0 0 0 255
329 306 0 0 0 255
319 165 0 0 0 255
378 291 0 0 0 255
398 222 0 0 0 255
279 242 0 0 0 255
306 324 0 0 0 255
253 85 0 0 0 255
305 275 0 0 0 255
352 231 0 0 0 255
329 294 0 0 0 255
317 91 0 0 0 255
309 193 0 0 0 255
317 163 0 0 0 255
288 398 0 0 0 255
259 369 0 0 0 255
230 112 0 0 0 255
220 237 0 0 0 255
302 158 0 0 0 255
284 389 0 0 0 255
243 355 0 0 0 255
253 373 0 0 0 255
269 325 0 0 0 255
289 219 0 0 0 255
262 360 0 0 0 255
322 398 0 0 0 255
353 375 0 0 0 255
388 283 0 0 0 255
386 188 0 0 0 255
219 81 0 0 0 255
253 145 0 0 0 255
347 121 0 0 0 255
292 150 0 0 0 255
262 126 0 0 0 255
311 181 0 0 0 255
378 168 0 0 0 255
341 214 0 0 0 255
418 222 0 0 0 255
393 185 0 0 0 255
320 358 0 0 0 255
237 209 0 0 0 255
308 382 0 0 0 255
252 85 0 0 0 255
210 235 0 0 0 255
378 339 0 0 0 255
334 78 0 0 0 255
368 243 0 0 0 255
352 320 0 0 0 255
378 138 0 0 0 255
271 320 0 0 0 255
258 218 0 0 0 255
359 223 0 0 0 255
341 341 0 0 0 255
293 370 0 0 0 255
383 361 0 0 0 255
264 198 0 0 0 255
228 188 0 0 0 255
327 88 0 0 0 255
270 340 0 0 0 255
334 287 0 0 0 255
253 195 0 0 0 255
260 250 0 0 0 255
395 258 0 0 0 255
314 82 0 0 0 255
267 121 0 0 0 255
349 334 0 0 0 255
381 189 0 0 0 255
230 365 0 0 0 255
272 263 0 0 0 255
224 170 0 0 0 255
392 344 0 0 0 255
282 311 0 0 0 255
264 418 0 0 0 255
271 91 0 0 0 255
426 160 0 0 0 255
296 313 0 0 0 255
262 371 0 0 0 255
353 195 0 0 0 255
385 201 0 0 0 255
285 141 0 0 0 255
347 428 0 0 0 255
329 192 0 0 0 255
321 249 0 0 0 255
398 85 0 0 0 255
370 377 0 0 0 255
266 360 0 0 0 255
264 83 0 0 0 255
352 312 0 0 0 255
281 242 0 0 0 255
228 219 0 0 0 255
222 135 0 0 0 255
349 413 0 0 0 255
247 228 0 0 0 255
334 287 0 0 0 255
409 324 0 0 0 255
359 404 0 0 0 255
205 147 0 0 0 255
277 133 0 0 0 255
370 237 0 0 0 255
314 381 0 0 0 255
387 355 0 0 0 255
307 387 0 0 0 255
275 151 0 0 0 255
232 126 0 0 0 255
239 211 0 0 0 255
248 433 0 0 0 255
357 299 0 0 0 255
378 170 0 0 0 255
304 371 0 0 0 255
420 142 0 0 0 255
292 82 0 0 0 255
295 234 0 0 0 255
231 197 0 0 0 255
318 203 0 0 0 255
381 92 0 0 0 255
260 259 0 0 0 255
348 192 0 0 0 255
402 301 0 0 0 255
369 106 0 0 0 255
306 133 0 0 0 255
368 163 0 0 0 255
251 135 0 0 0 255
382 344 0 0 0 255
382 370 0 0 0 255
403 182 0 0 0 255
309 146 0 0 0 255
275 355 0 0 0 255
317 335 0 0 0 255
278 221 0 0 0 255
299 330 0 0 0 255
290 354 0 0 0 255
345 359 0 0 0 255
366 206 0 0 0 255
289 157 0 0 0 255
389 387 0 0 0 255
297 442 0 0 0 255
337 366 0 0 0 255
247 417 0 0 0 255
367 120 0 0 0 255
336 286 0 0 0 255
240 197 0 0 0 255
253 290 0 0 0 255
319 131 0 0 0 255
330 291 0 0 0 255
335 235 0 0 0 255
299 153 0 0 0 255
245 330 0 0 0 255
375 94 0 0 0 255
287 153 0 0 0 255
417 325 0 0 0 255
350 161 0 0 0 255
277 366 0 0 0 255
254 75 0 0 0 255
300 211 0 0 0 255
362 88 0 0 0 255
256 260 0 0 0 255
391 321 0 0 0 255
322 397 0 0 0 255
382 298 0 0 0 255
299 235 0 0 0 255
295 227 0 0 0 255
349 50 0 0 0 255
409 213 0 0 0 255
319 262 0 0 0 255
254 245 0 0 0 255
255 327 0 0 0 255
317 228 0 0 0 255
358 245 0 0 0 255
244 290 0 0 0 255
346 284 0 0 0 255
294 205 0 0 0 255
313 425 0 0 0 255
380 158 0 0 0 255
363 42 0 0 0 255
349 310 0 0 0 255
266 348 0 0 0 255
331 296 0 0 0 255
285 60 0 0 0 255
416 93 0 0 0 255
319 204 0 0 0 255
223 341 0 0 0 255
234 120 0 0 0 255
241 134 0 0 0 255
273 356 0 0 0 255
360 137 0 0 0 255
397 390 0 0 0 255
316 394 0 0 0 255
372 171 0 0 0 255
221 365 0 0 0 255
394 440 0 0 0 255
359 220 0 0 0 255
303 77 0 0 0 255
239 161 0 0 0 255
411 265 0 0 0 255
391 232 0 0 0 255
231 145 0 0 0 255
334 396 0 0 0 255
421 387 0 0 0 255
358 223 0 0 0 255
369 211 0 0 0 255
324 224 0 0 0 255
276 403 0 0 0 255
275 86 0 0 0 255
378 329 0 0 0 255
366 272 0 0 0 255
370 240 0 0 0 255
279 365 0 0 0 255
346 291 0 0 0 255
375 320 0 0 0 255
227 255 0 0 0 255
245 202 0 0 0 255
368 205 0 0 0 255
363 279 0 0 0 255
411 439 0 0 0 255
340 297 0 0 0 255
286 235 0 0 0 255
345 385 0 0 0 255
381 203 0 0 0 255
326 90 0 0 0 255
306 244 0 0 0 255
358 346 0 0 0 255
333 293 0 0 0 255
303 269 0 0 0 255
333 177 0 0 0 255
291 192 0 0 0 255
314 406 0 0 0 255
281 251 0 0 0 255
407 228 0 0 0 255
249 445 0 0 0 255
355 222 0 0 0 255
350 94 0 0 0 255
389 304 0 0 0 255
233 340 0 0 0 255
385 357 0 0 0 255
275 74 0 0 0 255
300 97 0 0 0 255
299 313 0 0 0 255
315 164 0 0 0 255
404 150 0 0 0 255
243 278 0 0 0 255
359 343 0 0 0 255
350 77 0 0 0 255
252 66 0 0 0 255
369 435 0 0 0 255
260 409 0 0 0 255
340 121 0 0 0 255
353 373 0 0 0 255
272 362 0 0 0 255
378 300 0 0 0 255
356 131 0 0 0 255
334 431 0 0 0 255
245 372 0 0 0 255
270 352 0 0 0 255
371 268 0 0 0 255
278 199 0 0 0 255
413 415 0 0 0 255
348 26 0 0 0 255
400 278 0 0 0 255
357 201 0 0 0 255
368 146 0 0 0 255
348 442 0 0 0 255
416 366 0 0 0 255
367 304 0 0 0 255
342 130 0 0 0 255
228 175 0 0 0 255
273 247 0 0 0 255
320 99 0 0 0 255
246 376 0 0 0 255
400 350 0 0 0 255
224 169 0 0 0 255
333 275 0 0 0 255
272 260 0 0 0 255
307 114 0 0 0 255
233 164 0 0 0 255
294 194 0 0 0 255
355 141 0 0 0 255
255 185 0 0 0 255
302 180 0 0 0 255
367 228 0 0 0 255
258 175 0 0 0 255
357 263 0 0 0 255
409 83 0 0 0 255
309 321 0 0 0 255
402 410 0 0 0 255
379 353 0 0 0 255
314 156 0 0 0 255
275 278 0 0 0 255
392 97 0 0 0 255
281 68 0 0 0 255
244 119 0 0 0 255
263 217 0 0 0 255
280 107 0 0 0 255
363 249 0 0 0 255
273 122 0 0 0 255
344 410 0 0 0 255
388 329 0 0 0 255
248 163 0 0 0 255
358 205 0 0 0 255
348 285 0 0 0 255
227 392 0 0 0 255
235 151 0 0 0 255
340 80 0 0 0 255
372 347 0 0 0 255
354 96 0 0 0 255
391 369 0 0 0 255
347 251 0 0 0 255
335 81 0 0 0 255
365 152 0 0 0 255
332 335 0 0 0 255
257 262 0 0 0 255
411 117 0 0 0 255
350 395 0 0 0 255
295 371 0 0 0 255
276 399 0 0 0 255
328 208 0 0 0 255
394 172 0 0 0 255
288 165 0 0 0 255
379 268 0 0 0 255
331 199 0 0 0 255
327 389 0 0 0 255
384 380 0 0 0 255
279 262 0 0 0 255
400 355 0 0 0 255
381 404 0 0 0 255
300 359 0 0 0 255
291 98 0 0 0 255
373 330 0 0 0 255
372 297 0 0 0 255
291 144 0 0 0 255
278 280 0 0 0 255
307 89 0 0 0 255
336 321 0 0 0 255
240 296 0 0 0 255
291 419 0 0 0 255
289 149 0 0 0 255
288 67 0 0 0 255
259 96 0 0 0 255
360 208 0 0 0 255
366 118 0 0 0 255
351 370 0 0 0 255
417 207 0 0 0 255
276 82 0 0 0 255
374 163 0 0 0 255
270 254 0 0 0 255
284 167 0 0 0 255
337 85 0 0 0 255
262 240 0 0 0 255
388 184 0 0 0 255
336 336 0 0 0 255
263 163 0 0 0 255
239 236 0 0 0 255
355 187 0 0 0 255
231 58 0 0 0 255
300 362 0 0 0 255
271 119 0 0 0 255
320 163 0 0 0 255
285 187 0 0 0 255
221 228 0 0 0 255
331 97 0 0 0 255
270 214 0 0 0 255
293 338 0 0 0 255
332 193 0 0 0 255
381 159 0 0 0 255
324 187 0 0 0 255
288 404 0 0 0 255
385 308 0 0 0 255
210 89 0 0 0 255
240 256 0 0 0 255
275 107 0 0 0 255
335 171 0 0 0 255
268 117 0 0 0 255
334 143 0 0 0 255
245 264 0 0 0 255
273 65 0 0 0 255
374 398 0 0 0 255
308 215 0 0 0 255
303 379 0 0 0 255
239 280 0 0 0 255
243 284 0 0 0 255
373 271 0 0 0 255
314 245 0 0 0 255
384 93 0 0 0 255
344 434 0 0 0 255
396 361 0 0 0 255
293 74 0 0 0 255
311 106 0 0 0 255
402 249 0 0 0 255
263 282 0 0 0 255
