ply
format ascii 1.0
element vertex 500
property float x
property float y
property float z
property uchar red
property uchar green
property uchar blue
end_header
1076 438 0 0 0 255
819 793 0 0 0 255
1119 1015 0 0 0 255
715 561 0 0 0 255
648 591 0 0 0 255
1056 411 0 0 0 255
655 834 0 0 0 255
1027 1007 0 0 0 255
780 450 0 0 0 255
1429 433 0 0 0 255
691 1137 0 0 0 255
375 280 0 0 0 255
950 200 0 0 0 255
1038 810 0 0 0 255
1073 924 0 0 0 255
1212 525 0 0 0 255
1028 1234 0 0 0 255
961 1252 0 0 0 255
489 671 0 0 0 255
1238 421 0 0 0 255
884 1187 0 0 0 255
1014 224 0 0 0 255
640 837 0 0 0 255
1011 193 0 0 0 255
953 922 0 0 0 255
1523 543 0 0 0 255
798 379 0 0 0 255
1351 440 0 0 0 255
727 890 0 0 0 255
816 993 0 0 0 255
702 780 0 0 0 255
1181 831 0 0 0 255
891 814 0 0 0 255
556 388 0 0 0 255
1288 426 0 0 0 255
805 453 0 0 0 255
1285 751 0 0 0 255
621 1013 0 0 0 255
966 1060 0 0 0 255
1109 1198 0 0 0 255
1443 1080 0 0 0 255
887 1130 0 0 0 255
1277 1013 0 0 0 255
1370 354 0 0 0 255
1138 891 0 0 0 255
710 869 0 0 0 255
848 344 0 0 0 255
813 1360 0 0 0 255
498 420 0 0 0 255
572 175 0 0 0 255
1062 402 0 0 0 255
1121 965 0 0 0 255
750 1245 0 0 0 255
1428 1082 0 0 0 255
507 924 0 0 0 255
516 107 0 0 0 255
1320 836 0 0 0 255
870 574 0 0 0 255
1177 486 0 0 0 255
648 275 0 0 0 255
1250 1251 0 0 0 255
1084 771 0 0 0 255
982 973 0 0 0 255
1036 585 0 0 0 255
1116 463 0 0 0 255
646 387 0 0 0 255
732 1032 0 0 0 255
457 650 0 0 0 255
811 1075 0 0 0 255
573 976 0 0 0 255
1377 1206 0 0 0 255
1282 520 0 0 0 255
714 857 0 0 0 255
314 252 0 0 0 255
1117 987 0 0 0 255
1167 838 0 0 0 255
1112 593 0 0 0 255
1465 1065 0 0 0 255
967 977 0 0 0 255
1358 431 0 0 0 255
723 56 0 0 0 255
936 564 0 0 0 255
1148 1271 0 0 0 255
938 1331 0 0 0 255
860 561 0 0 0 255
746 719 0 0 0 255
1462 1204 0 0 0 255
1681 1208 0 0 0 255
710 828 0 0 0 255
1062 796 0 0 0 255
821 1196 0 0 0 255
696 308 0 0 0 255
519 239 0 0 0 255
949 921 0 0 0 255
1061 954 0 0 0 255
998 848 0 0 0 255
1325 1095 0 0 0 255
1256 1287 0 0 0 255
1149 854 0 0 0 255
1525 983 0 0 0 255
1060 942 0 0 0 255
1031 238 0 0 0 255
447 835 0 0 0 255
1137 993 0 0 0 255
621 650 0 0 0 255
955 1049 0 0 0 255
298 463 0 0 0 255
1483 1224 0 0 0 255
703 154 0 0 0 255
640 819 0 0 0 255
581 363 0 0 0 255
1505 985 0 0 0 255
556 1100 0 0 0 255
851 554 0 0 0 255
1200 763 0 0 0 255
1021 800 0 0 0 255
1135 507 0 0 0 255
1615 462 0 0 0 255
1027 663 0 0 0 255
1418 987 0 0 0 255
993 900 0 0 0 255
1169 619 0 0 0 255
966 950 0 0 0 255
1261 909 0 0 0 255
852 892 0 0 0 255
1307 420 0 0 0 255
536 1136 0 0 0 255
1198 798 0 0 0 255
838 688 0 0 0 255
1163 527 0 0 0 255
1266 1133 0 0 0 255
674 277 0 0 0 255
773 1183 0 0 0 255
1075 1213 0 0 0 255
1494 486 0 0 0 255
759 1120 0 0 0 255
1045 682 0 0 0 255
400 732 0 0 0 255
781 818 0 0 0 255
1138 352 0 0 0 255
1329 670 0 0 0 255
785 1063 0 0 0 255
822 716 0 0 0 255
562 173 0 0 0 255
1343 854 0 0 0 255
1046 806 0 0 0 255
1558 624 0 0 0 255
1173 325 0 0 0 255
1193 887 0 0 0 255
786 1202 0 0 0 255
1504 863 0 0 0 255
1186 324 0 0 0 255
374 805 0 0 0 255
707 518 0 0 0 255
1079 970 0 0 0 255
1116 629 0 0 0 255
1395 662 0 0 0 255
1242 389 0 0 0 255
1504 852 0 0 0 255
539 396 0 0 0 255
1115 604 0 0 0 255
726 1100 0 0 0 255
1432 780 0 0 0 255
1426 571 0 0 0 255
1511 446 0 0 0 255
1072 782 0 0 0 255
768 306 0 0 0 255
1153 355 0 0 0 255
1309 967 0 0 0 255
1273 503 0 0 0 255
1298 399 0 0 0 255
948 1262 0 0 0 255
552 292 0 0 0 255
1482 687 0 0 0 255
514 376 0 0 0 255
1138 876 0 0 0 255
1275 1197 0 0 0 255
853 274 0 0 0 255
1114 937 0 0 0 255
855 887 0 0 0 255
885 249 0 0 0 255
706 1136 0 0 0 255
1037 140 0 0 0 255
812 632 0 0 0 255
845 1070 0 0 0 255
1137 597 0 0 0 255
1324 707 0 0 0 255
1308 459 0 0 0 255
1167 540 0 0 0 255
1148 1171 0 0 0 255
1544 1082 0 0 0 255
1633 1110 0 0 0 255
449 394 0 0 0 255
1155 1252 0 0 0 255
1311 889 0 0 0 255
293 170 0 0 0 255
817 608 0 0 0 255
803 769 0 0 0 255
624 222 0 0 0 255
681 994 0 0 0 255
725 855 0 0 0 255
510 1030 0 0 0 255
1222 1083 0 0 0 255
456 1015 0 0 0 255
1179 373 0 0 0 255
950 461 0 0 0 255
854 1012 0 0 0 255
1236 1111 0 0 0 255
1054 760 0 0 0 255
756 1099 0 0 0 255
1039 917 0 0 0 255
1514 1208 0 0 0 255
1440 1320 0 0 0 255
1095 86 0 0 0 255
701 354 0 0 0 255
1061 624 0 0 0 255
807 956 0 0 0 255
1037 527 0 0 0 255
718 1137 0 0 0 255
464 728 0 0 0 255
714 404 0 0 0 255
738 342 0 0 0 255
1257 512 0 0 0 255
1145 944 0 0 0 255
1296 702 0 0 0 255
1451 1134 0 0 0 255
1151 1099 0 0 0 255
756 311 0 0 0 255
484 341 0 0 0 255
1074 673 0 0 0 255
907 1179 0 0 0 255
902 913 0 0 0 255
755 793 0 0 0 255
1026 721 0 0 0 255
698 1057 0 0 0 255
993 1202 0 0 0 255
857 1123 0 0 0 255
1266 274 0 0 0 255
943 505 0 0 0 255
1268 289 0 0 0 255
1168 1010 0 0 0 255
1002 858 0 0 0 255
835 889 0 0 0 255
806 1191 0 0 0 255
414 580 0 0 0 255
634 1195 0 0 0 255
980 743 0 0 0 255
1352 882 0 0 0 255
1266 1106 0 0 0 255
608 369 0 0 0 255
709 968 0 0 0 255
423 775 0 0 0 255
600 1140 0 0 0 255
835 649 0 0 0 255
1045 327 0 0 0 255
1123 164 0 0 0 255
523 315 0 0 0 255
890 513 0 0 0 255
659 541 0 0 0 255
447 166 0 0 0 255
970 630 0 0 0 255
828 145 0 0 0 255
1057 1094 0 0 0 255
506 1031 0 0 0 255
1363 500 0 0 0 255
1089 571 0 0 0 255
850 533 0 0 0 255
919 441 0 0 0 255
1070 946 0 0 0 255
439 71 0 0 0 255
736 226 0 0 0 255
1058 601 0 0 0 255
856 340 0 0 0 255
778 1063 0 0 0 255
711 1057 0 0 0 255
615 443 0 0 0 255
980 1113 0 0 0 255
638 642 0 0 0 255
1084 985 0 0 0 255
514 288 0 0 0 255
589 527 0 0 0 255
1026 440 0 0 0 255
670 684 0 0 0 255
1396 853 0 0 0 255
963 459 0 0 0 255
453 1009 0 0 0 255
625 268 0 0 0 255
965 918 0 0 0 255
199 459 0 0 0 255
634 758 0 0 0 255
1603 994 0 0 0 255
976 755 0 0 0 255
316 98 0 0 0 255
1094 899 0 0 0 255
262 929 0 0 0 255
536 892 0 0 0 255
1275 720 0 0 0 255
889 184 0 0 0 255
1074 856 0 0 0 255
1280 633 0 0 0 255
821 1029 0 0 0 255
1541 1185 0 0 0 255
1300 474 0 0 0 255
1415 463 0 0 0 255
775 633 0 0 0 255
476 853 0 0 0 255
1042 470 0 0 0 255
897 821 0 0 0 255
992 269 0 0 0 255
914 134 0 0 0 255
840 980 0 0 0 255
361 213 0 0 0 255
1372 438 0 0 0 255
891 947 0 0 0 255
1603 482 0 0 0 255
1124 994 0 0 0 255
1460 1077 0 0 0 255
1591 1113 0 0 0 255
827 938 0 0 0 255
1039 320 0 0 0 255
1482 1210 0 0 0 255
948 1091 0 0 0 255
1319 870 0 0 0 255
1320 1217 0 0 0 255
1017 514 0 0 0 255
923 336 0 0 0 255
1305 1109 0 0 0 255
1269 1018 0 0 0 255
960 1205 0 0 0 255
487 1030 0 0 0 255
352 576 0 0 0 255
712 1109 0 0 0 255
1226 411 0 0 0 255
1004 1054 0 0 0 255
1472 540 0 0 0 255
315 241 0 0 0 255
1121 376 0 0 0 255
1044 1329 0 0 0 255
657 385 0 0 0 255
1175 600 0 0 0 255
920 850 0 0 0 255
1090 788 0 0 0 255
827 821 0 0 0 255
1032 658 0 0 0 255
838 100 0 0 0 255
955 123 0 0 0 255
854 586 0 0 0 255
598 878 0 0 0 255
863 1021 0 0 0 255
975 1045 0 0 0 255
1479 760 0 0 0 255
557 446 0 0 0 255
856 957 0 0 0 255
947 1030 0 0 0 255
1164 557 0 0 0 255
911 964 0 0 0 255
1686 1234 0 0 0 255
719 372 0 0 0 255
1043 600 0 0 0 255
1206 1137 0 0 0 255
653 549 0 0 0 255
647 658 0 0 0 255
995 958 0 0 0 255
1002 1166 0 0 0 255
1030 1164 0 0 0 255
1268 747 0 0 0 255
959 993 0 0 0 255
1226 1179 0 0 0 255
1148 692 0 0 0 255
924 397 0 0 0 255
1114 442 0 0 0 255
375 922 0 0 0 255
1044 1064 0 0 0 255
1218 531 0 0 0 255
850 394 0 0 0 255
965 196 0 0 0 255
433 811 0 0 0 255
480 694 0 0 0 255
830 653 0 0 0 255
655 248 0 0 0 255
899 346 0 0 0 255
1457 423 0 0 0 255
1199 321 0 0 0 255
835 1038 0 0 0 255
1520 617 0 0 0 255
726 365 0 0 0 255
397 796 0 0 0 255
1045 1066 0 0 0 255
346 278 0 0 0 255
880 412 0 0 0 255
775 255 0 0 0 255
681 264 0 0 0 255
1681 1099 0 0 0 255
1219 928 0 0 0 255
943 525 0 0 0 255
617 433 0 0 0 255
1555 476 0 0 0 255
603 903 0 0 0 255
957 1288 0 0 0 255
759 575 0 0 0 255
471 524 0 0 0 255
1106 1109 0 0 0 255
576 703 0 0 0 255
1055 1260 0 0 0 255
347 853 0 0 0 255
1258 926 0 0 0 255
1105 973 0 0 0 255
1584 964 0 0 0 255
528 1021 0 0 0 255
1310 584 0 0 0 255
867 529 0 0 0 255
1507 912 0 0 0 255
1158 938 0 0 0 255
1088 1039 0 0 0 255
1706 852 0 0 0 255
1587 765 0 0 0 255
1066 624 0 0 0 255
540 833 0 0 0 255
1068 398 0 0 0 255
701 429 0 0 0 255
973 922 0 0 0 255
566 381 0 0 0 255
1091 940 0 0 0 255
1567 533 0 0 0 255
1616 925 0 0 0 255
1041 532 0 0 0 255
985 1074 0 0 0 255
324 500 0 0 0 255
1486 946 0 0 0 255
1096 438 0 0 0 255
710 447 0 0 0 255
1200 577 0 0 0 255
789 516 0 0 0 255
687 557 0 0 0 255
943 680 0 0 0 255
952 210 0 0 0 255
1078 1170 0 0 0 255
832 1046 0 0 0 255
779 1029 0 0 0 255
1135 483 0 0 0 255
1387 791 0 0 0 255
827 1185 0 0 0 255
818 1107 0 0 0 255
772 907 0 0 0 255
645 1087 0 0 0 255
715 285 0 0 0 255
802 687 0 0 0 255
897 583 0 0 0 255
1257 762 0 0 0 255
1076 664 0 0 0 255
1153 1055 0 0 0 255
724 661 0 0 0 255
790 1009 0 0 0 255
1095 797 0 0 0 255
1050 732 0 0 0 255
943 922 0 0 0 255
1155 434 0 0 0 255
915 418 0 0 0 255
454 448 0 0 0 255
1427 993 0 0 0 255
1209 1331 0 0 0 255
994 938 0 0 0 255
1286 1146 0 0 0 255
1081 648 0 0 0 255
1270 843 0 0 0 255
1072 704 0 0 0 255
1095 919 0 0 0 255
849 1082 0 0 0 255
336 557 0 0 0 255
992 522 0 0 0 255
548 713 0 0 0 255
378 900 0 0 0 255
431 941 0 0 0 255
1192 943 0 0 0 255
771 964 0 0 0 255
1705 848 0 0 0 255
1645 1320 0 0 0 255
1000 981 0 0 0 255
674 632 0 0 0 255
648 964 0 0 0 255
521 901 0 0 0 255
1080 752 0 0 0 255
1067 884 0 0 0 255
418 739 0 0 0 255
688 844 0 0 0 255
695 805 0 0 0 255
638 173 0 0 0 255
1220 474 0 0 0 255
1042 1077 0 0 0 255
1074 554 0 0 0 255
1254 389 0 0 0 255
469 316 0 0 0 255
1381 915 0 0 0 255
1390 478 0 0 0 255
1324 1033 0 0 0 255
1392 576 0 0 0 255
788 929 0 0 0 255
834 751 0 0 0 255
328 316 0 0 0 255
1074 206 0 0 0 255
