ply
format ascii 1.0
element vertex 500
property float x
property float y
property float z
property uchar red
property uchar green
property uchar blue
end_header
278 268 0 0 0 255
256 336 0 0 0 255
293 125 0 0 0 255
382 237 0 0 0 255
375 61 0 0 0 255
402 141 0 0 0 255
317 373 0 0 0 255
250 375 0 0 0 255
413 371 0 0 0 255
402 146 0 0 0 255
326 90 0 0 0 255
247 261 0 0 0 255
406 159 0 0 0 255
317 160 0 0 0 255
223 411 0 0 0 255
393 199 0 0 0 255
396 126 0 0 0 255
344 280 0 0 0 255
380 386 0 0 0 255
248 275 0 0 0 255
321 439 0 0 0 255
296 194 0 0 0 255
333 385 0 0 0 255
408 446 0 0 0 255
234 90 0 0 0 255
404 373 0 0 0 255
317 74 0 0 0 255
278 79 0 0 0 255
278 72 0 0 0 255
377 119 0 0 0 255
287 69 0 0 0 255
316 329 0 0 0 255
263 98 0 0 0 255
287 235 0 0 0 255
340 281 0 0 0 255
353 37 0 0 0 255
302 98 0 0 0 255
346 46 0 0 0 255
336 91 0 0 0 255
383 274 0 0 0 255
324 305 0 0 0 255
240 337 0 0 0 255
269 309 0 0 0 255
360 187 0 0 0 255
259 178 0 0 0 255
310 227 0 0 0 255
233 56 0 0 0 255
347 229 0 0 0 255
381 252 0 0 0 255
382 194 0 0 0 255
233 156 0 0 0 255
253 370 0 0 0 255
277 234 0 0 0 255
358 350 0 0 0 255
241 63 0 0 0 255
381 88 0 0 0 255
300 143 0 0 0 255
326 325 0 0 0 255
354 252 0 0 0 255
412 173 0 0 0 255
393 100 0 0 0 255
232 266 0 0 0 255
299 384 0 0 0 255
311 171 0 0 0 255
285 251 0 0 0 255
351 189 0 0 0 255
302 226 0 0 0 255
220 288 0 0 0 255
269 258 0 0 0 255
339 91 0 0 0 255
257 122 0 0 0 255
348 280 0 0 0 255
394 295 0 0 0 255
392 274 0 0 0 255
399 249 0 0 0 255
256 409 0 0 0 255
243 402 0 0 0 255
361 143 0 0 0 255
390 132 0 0 0 255
240 178 0 0 0 255
373 345 0 0 0 255
367 188 0 0 0 255
372 191 0 0 0 255
393 397 0 0 0 255
344 252 0 0 0 255
251 378 0 0 0 255
295 388 0 0 0 255
255 291 0 0 0 255
257 340 0 0 0 255
276 328 0 0 0 255
392 174 0 0 0 255
255 160 0 0 0 255
380 213 0 0 0 255
230 38 0 0 0 255
246 173 0 0 0 255
358 64 0 0 0 255
335 74 0 0 0 255
282 228 0 0 0 255
227 421 0 0 0 255
288 338 0 0 0 255
322 169 0 0 0 255
309 227 0 0 0 255
245 167 0 0 0 255
355 88 0 0 0 255
308 235 0 0 0 255
402 154 0 0 0 255
294 342 0 0 0 255
317 375 0 0 0 255
249 83 0 0 0 255
268 246 0 0 0 255
283 248 0 0 0 255
303 252 0 0 0 255
282 97 0 0 0 255
361 252 0 0 0 255
325 250 0 0 0 255
274 165 0 0 0 255
362 84 0 0 0 255
418 140 0 0 0 255
242 35 0 0 0 255
369 120 0 0 0 255
264 185 0 0 0 255
328 420 0 0 0 255
368 129 0 0 0 255
283 334 0 0 0 255
360 248 0 0 0 255
318 387 0 0 0 255
331 175 0 0 0 255
334 374 0 0 0 255
307 380 0 0 0 255
266 456 0 0 0 255
248 97 0 0 0 255
392 182 0 0 0 255
249 235 0 0 0 255
335 345 0 0 0 255
399 91 0 0 0 255
383 341 0 0 0 255
238 282 0 0 0 255
371 255 0 0 0 255
245 285 0 0 0 255
243 78 0 0 0 255
400 383 0 0 0 255
274 239 0 0 0 255
397 130 0 0 0 255
390 371 0 0 0 255
315 142 0 0 0 255
373 370 0 0 0 255
409 139 0 0 0 255
311 350 0 0 0 255
344 198 0 0 0 255
276 280 0 0 0 255
400 298 0 0 0 255
374 267 0 0 0 255
325 233 0 0 0 255
376 100 0 0 0 255
372 138 0 0 0 255
298 325 0 0 0 255
330 364 0 0 0 255
265 177 0 0 0 255
406 202 0 0 0 255
259 185 0 0 0 255
365 161 0 0 0 255
268 341 0 0 0 255
323 215 0 0 0 255
287 72 0 0 0 255
387 324 0 0 0 255
391 435 0 0 0 255
234 342 0 0 0 255
341 274 0 0 0 255
265 108 0 0 0 255
374 322 0 0 0 255
344 103 0 0 0 255
291 84 0 0 0 255
275 305 0 0 0 255
298 263 0 0 0 255
339 286 0 0 0 255
281 92 0 0 0 255
352 172 0 0 0 255
295 126 0 0 0 255
256 309 0 0 0 255
399 451 0 0 0 255
256 261 0 0 0 255
371 230 0 0 0 255
375 339 0 0 0 255
359 171 0 0 0 255
411 141 0 0 0 255
348 358 0 0 0 255
363 260 0 0 0 255
280 140 0 0 0 255
304 277 0 0 0 255
358 77 0 0 0 255
365 343 0 0 0 255
392 313 0 0 0 255
263 237 0 0 0 255
382 91 0 0 0 255
327 139 0 0 0 255
370 58 0 0 0 255
417 390 0 0 0 255
295 216 0 0 0 255
294 148 0 0 0 255
304 354 0 0 0 255
349 374 0 0 0 255
322 361 0 0 0 255
424 303 0 0 0 255
289 215 0 0 0 255
240 313 0 0 0 255
397 199 0 0 0 255
264 52 0 0 0 255
276 277 0 0 0 255
366 312 0 0 0 255
311 299 0 0 0 255
217 12 0 0 0 255
306 353 0 0 0 255
341 316 0 0 0 255
320 352 0 0 0 255
342 361 0 0 0 255
254 51 0 0 0 255
354 157 0 0 0 255
297 324 0 0 0 255
280 173 0 0 0 255
351 182 0 0 0 255
278 94 0 0 0 255
300 428 0 0 0 255
287 240 0 0 0 255
242 402 0 0 0 255
242 337 0 0 0 255
222 426 0 0 0 255
402 383 0 0 0 255
270 156 0 0 0 255
418 271 0 0 0 255
406 326 0 0 0 255
402 373 0 0 0 255
272 347 0 0 0 255
356 26 0 0 0 255
406 110 0 0 0 255
320 111 0 0 0 255
265 79 0 0 0 255
389 182 0 0 0 255
348 189 0 0 0 255
272 341 0 0 0 255
238 213 0 0 0 255
330 153 0 0 0 255
342 59 0 0 0 255
243 251 0 0 0 255
345 262 0 0 0 255
246 43 0 0 0 255
305 417 0 0 0 255
284 137 0 0 0 255
346 357 0 0 0 255
269 145 0 0 0 255
394 111 0 0 0 255
322 125 0 0 0 255
343 374 0 0 0 255
371 73 0 0 0 255
255 122 0 0 0 255
415 157 0 0 0 255
263 65 0 0 0 255
305 296 0 0 0 255
274 329 0 0 0 255
396 326 0 0 0 255
306 335 0 0 0 255
386 386 0 0 0 255
237 376 0 0 0 255
373 287 0 0 0 255
247 185 0 0 0 255
276 384 0 0 0 255
368 269 0 0 0 255
241 366 0 0 0 255
337 234 0 0 0 255
247 281 0 0 0 255
295 185 0 0 0 255
386 186 0 0 0 255
275 347 0 0 0 255
264 325 0 0 0 255
284 188 0 0 0 255
266 105 0 0 0 255
266 142 0 0 0 255
391 377 0 0 0 255
377 89 0 0 0 255
363 240 0 0 0 255
342 287 0 0 0 255
425 74 0 0 0 255
301 272 0 0 0 255
256 186 0 0 0 255
359 95 0 0 0 255
411 386 0 0 0 255
314 195 0 0 0 255
282 275 0 0 0 255
278 228 0 0 0 255
351 215 0 0 0 255
363 397 0 0 0 255
318 422 0 0 0 255
247 375 0 0 0 255
300 354 0 0 0 255
280 197 0 0 0 255
243 92 0 0 0 255
264 312 0 0 0 255
375 360 0 0 0 255
240 107 0 0 0 255
320 275 0 0 0 255
304 94 0 0 0 255
332 348 0 0 0 255
330 75 0 0 0 255
285 389 0 0 0 255
240 213 0 0 0 255
322 188 0 0 0 255
343 101 0 0 0 255
395 246 0 0 0 255
292 416 0 0 0 255
304 156 0 0 0 255
248 365 0 0 0 255
328 234 0 0 0 255
284 166 0 0 0 255
258 210 0 0 0 255
345 49 0 0 0 255
373 158 0 0 0 255
261 356 0 0 0 255
295 79 0 0 0 255
259 27 0 0 0 255
381 93 0 0 0 255
350 76 0 0 0 255
313 392 0 0 0 255
331 47 0 0 0 255
384 342 0 0 0 255
330 250 0 0 0 255
272 126 0 0 0 255
257 354 0 0 0 255
362 312 0 0 0 255
237 286 0 0 0 255
350 97 0 0 0 255
276 291 0 0 0 255
252 189 0 0 0 255
264 285 0 0 0 255
325 276 0 0 0 255
328 210 0 0 0 255
385 389 0 0 0 255
364 165 0 0 0 255
360 160 0 0 0 255
244 181 0 0 0 255
250 85 0 0 0 255
265 224 0 0 0 255
234 356 0 0 0 255
358 158 0 0 0 255
254 437 0 0 0 255
263 240 0 0 0 255
302 282 0 0 0 255
323 294 0 0 0 255
336 365 0 0 0 255
224 339 0 0 0 255
349 153 0 0 0 255
363 36 0 0 0 255
268 400 0 0 0 255
421 242 0 0 0 255
328 415 0 0 0 255
254 326 0 0 0 255
317 379 0 0 0 255
276 252 0 0 0 255
217 201 0 0 0 255
220 167 0 0 0 255
261 110 0 0 0 255
287 299 0 0 0 255
355 213 0 0 0 255
272 69 0 0 0 255
331 179 0 0 0 255
380 395 0 0 0 255
402 159 0 0 0 255
286 376 0 0 0 255
317 267 0 0 0 255
346 266 0 0 0 255
284 123 0 0 0 255
276 387 0 0 0 255
361 177 0 0 0 255
289 402 0 0 0 255
254 369 0 0 0 255
364 275 0 0 0 255
265 82 0 0 0 255
237 318 0 0 0 255
272 74 0 0 0 255
382 343 0 0 0 255
397 277 0 0 0 255
335 157 0 0 0 255
265 239 0 0 0 255
373 320 0 0 0 255
250 294 0 0 0 255
356 348 0 0 0 255
340 77 0 0 0 255
278 293 0 0 0 255
404 333 0 0 0 255
407 166 0 0 0 255
245 354 0 0 0 255
312 275 0 0 0 255
393 370 0 0 0 255
257 374 0 0 0 255
251 243 0 0 0 255
242 371 0 0 0 255
268 401 0 0 0 255
350 142 0 0 0 255
372 127 0 0 0 255
322 272 0 0 0 255
408 220 0 0 0 255
260 98 0 0 0 255
249 352 0 0 0 255
279 227 0 0 0 255
364 268 0 0 0 255
320 159 0 0 0 255
229 211 0 0 0 255
309 174 0 0 0 255
388 321 0 0 0 255
221 341 0 0 0 255
398 99 0 0 0 255
407 88 0 0 0 255
241 252 0 0 0 255
373 269 0 0 0 255
221 170 0 0 0 255
384 130 0 0 0 255
380 314 0 0 0 255
280 178 0 0 0 255
248 322 0 0 0 255
374 115 0 0 0 255
329 196 0 0 0 255
236 429 0 0 0 255
389 311 0 0 0 255
338 141 0 0 0 255
313 225 0 0 0 255
324 377 0 0 0 255
383 167 0 0 0 255
345 135 0 0 0 255
278 118 0 0 0 255
323 60 0 0 0 255
353 222 0 0 0 255
257 312 0 0 0 255
264 243 0 0 0 255
263 159 0 0 0 255
321 286 0 0 0 255
368 323 0 0 0 255
294 182 0 0 0 255
415 237 0 0 0 255
365 359 0 0 0 255
235 385 0 0 0 255
427 267 0 0 0 255
314 184 0 0 0 255
412 376 0 0 0 255
289 115 0 0 0 255
306 192 0 0 0 255
414 193 0 0 0 255
251 128 0 0 0 255
284 209 0 0 0 255
312 360 0 0 0 255
265 93 0 0 0 255
386 339 0 0 0 255
305 376 0 0 0 255
346 330 0 0 0 255
368 324 0 0 0 255
390 79 0 0 0 255
295 94 0 0 0 255
363 278 0 0 0 255
349 172 0 0 0 255
316 93 0 0 0 255
285 286 0 0 0 255
368 198 0 0 0 255
288 342 0 0 0 255
344 213 0 0 0 255
219 330 0 0 0 255
250 72 0 0 0 255
317 245 0 0 0 255
287 251 0 0 0 255
273 387 0 0 0 255
361 149 0 0 0 255
331 67 0 0 0 255
311 144 0 0 0 255
262 355 0 0 0 255
288 383 0 0 0 255
274 250 0 0 0 255
345 393 0 0 0 255
333 156 0 0 0 255
315 339 0 0 0 255
426 424 0 0 0 255
402 197 0 0 0 255
301 91 0 0 0 255
315 361 0 0 0 255
259 348 0 0 0 255
384 351 0 0 0 255
418 305 0 0 0 255
271 166 0 0 0 255
293 185 0 0 0 255
323 125 0 0 0 255
316 304 0 0 0 255
218 334 0 0 0 255
417 181 0 0 0 255
379 249 0 0 0 255
412 119 0 0 0 255
368 193 0 0 0 255
387 283 0 0 0 255
370 353 0 0 0 255
248 206 0 0 0 255
375 112 0 0 0 255
319 394 0 0 0 255
258 167 0 0 0 255
240 407 0 0 0 255
241 100 0 0 0 255
393 205 0 0 0 255
