ply
format ascii 1.0
element vertex 500
property float x
property float y
property float z
property uchar red
property uchar green
property uchar blue
end_header
411 347 0 0 0 255
364 463 0 0 0 255
233 508 0 0 0 255
199 146 0 0 0 255
368 382 0 0 0 255
269 128 0 0 0 255
297 406 0 0 0 255
282 507 0 0 0 255
313 299 0 0 0 255
276 130 0 0 0 255
160 426 0 0 0 255
239 359 0 0 0 255
288 390 0 0 0 255
145 -144 0 0 0 255
292 210 0 0 0 255
471 255 0 0 0 255
417 192 0 0 0 255
472 281 0 0 0 255
216 314 0 0 0 255
449 326 0 0 0 255
274 176 0 0 0 255
516 141 0 0 0 255
353 150 0 0 0 255
425 212 0 0 0 255
219 315 0 0 0 255
365 458 0 0 0 255
434 222 0 0 0 255
304 52 0 0 0 255
423 -61 0 0 0 255
455 65 0 0 0 255
237 257 0 0 0 255
272 342 0 0 0 255
240 106 0 0 0 255
272 178 0 0 0 255
198 577 0 0 0 255
345 472 0 0 0 255
479 -17 0 0 0 255
218 211 0 0 0 255
384 185 0 0 0 255
416 534 0 0 0 255
248 -94 0 0 0 255
357 287 0 0 0 255
405 269 0 0 0 255
159 -45 0 0 0 255
393 267 0 0 0 255
220 508 0 0 0 255
228 315 0 0 0 255
327 129 0 0 0 255
218 196 0 0 0 255
372 194 0 0 0 255
238 297 0 0 0 255
265 437 0 0 0 255
278 320 0 0 0 255
253 41 0 0 0 255
332 190 0 0 0 255
258 198 0 0 0 255
389 350 0 0 0 255
511 -39 0 0 0 255
382 281 0 0 0 255
291 334 0 0 0 255
248 7 0 0 0 255
246 -57 0 0 0 255
249 355 0 0 0 255
297 5 0 0 0 255
370 307 0 0 0 255
362 524 0 0 0 255
425 53 0 0 0 255
411 -68 0 0 0 255
202 364 0 0 0 255
389 15 0 0 0 255
351 448 0 0 0 255
368 88 0 0 0 255
258 35 0 0 0 255
319 546 0 0 0 255
291 211 0 0 0 255
302 146 0 0 0 255
412 492 0 0 0 255
429 305 0 0 0 255
202 457 0 0 0 255
404 271 0 0 0 255
197 -32 0 0 0 255
339 247 0 0 0 255
257 109 0 0 0 255
243 138 0 0 0 255
291 123 0 0 0 255
425 370 0 0 0 255
195 600 0 0 0 255
349 43 0 0 0 255
476 19 0 0 0 255
275 -68 0 0 0 255
349 403 0 0 0 255
265 185 0 0 0 255
235 455 0 0 0 255
265 549 0 0 0 255
390 423 0 0 0 255
211 43 0 0 0 255
191 -34 0 0 0 255
271 -125 0 0 0 255
317 321 0 0 0 255
312 59 0 0 0 255
128 238 0 0 0 255
303 277 0 0 0 255
200 151 0 0 0 255
245 130 0 0 0 255
351 202 0 0 0 255
419 494 0 0 0 255
364 524 0 0 0 255
248 308 0 0 0 255
195 -26 0 0 0 255
512 473 0 0 0 255
229 219 0 0 0 255
175 580 0 0 0 255
388 401 0 0 0 255
378 466 0 0 0 255
519 230 0 0 0 255
472 -130 0 0 0 255
421 330 0 0 0 255
332 401 0 0 0 255
491 393 0 0 0 255
202 613 0 0 0 255
432 402 0 0 0 255
366 24 0 0 0 255
389 326 0 0 0 255
350 174 0 0 0 255
234 290 0 0 0 255
218 462 0 0 0 255
356 312 0 0 0 255
389 156 0 0 0 255
356 120 0 0 0 255
418 38 0 0 0 255
451 319 0 0 0 255
201 170 0 0 0 255
249 383 0 0 0 255
304 32 0 0 0 255
262 100 0 0 0 255
315 244 0 0 0 255
238 352 0 0 0 255
324 -21 0 0 0 255
409 269 0 0 0 255
228 -3 0 0 0 255
134 187 0 0 0 255
310 198 0 0 0 255
262 -106 0 0 0 255
255 32 0 0 0 255
232 332 0 0 0 255
361 372 0 0 0 255
287 -14 0 0 0 255
192 424 0 0 0 255
412 -20 0 0 0 255
300 358 0 0 0 255
401 163 0 0 0 255
200 188 0 0 0 255
218 200 0 0 0 255
449 348 0 0 0 255
392 420 0 0 0 255
159 358 0 0 0 255
404 224 0 0 0 255
312 178 0 0 0 255
417 362 0 0 0 255
408 -17 0 0 0 255
298 458 0 0 0 255
394 455 0 0 0 255
237 434 0 0 0 255
370 465 0 0 0 255
442 76 0 0 0 255
220 105 0 0 0 255
221 369 0 0 0 255
458 95 0 0 0 255
314 276 0 0 0 255
405 -156 0 0 0 255
306 127 0 0 0 255
438 294 0 0 0 255
405 186 0 0 0 255
310 78 0 0 0 255
380 156 0 0 0 255
472 587 0 0 0 255
329 344 0 0 0 255
291 304 0 0 0 255
445 -88 0 0 0 255
209 405 0 0 0 255
451 218 0 0 0 255
387 114 0 0 0 255
401 -29 0 0 0 255
384 300 0 0 0 255
349 147 0 0 0 255
245 138 0 0 0 255
440 96 0 0 0 255
286 514 0 0 0 255
321 291 0 0 0 255
296 -33 0 0 0 255
212 661 0 0 0 255
265 332 0 0 0 255
266 386 0 0 0 255
178 532 0 0 0 255
215 409 0 0 0 255
234 67 0 0 0 255
437 133 0 0 0 255
357 278 0 0 0 255
286 179 0 0 0 255
389 196 0 0 0 255
276 -109 0 0 0 255
349 9 0 0 0 255
274 114 0 0 0 255
354 38 0 0 0 255
360 403 0 0 0 255
364 342 0 0 0 255
193 198 0 0 0 255
383 282 0 0 0 255
463 495 0 0 0 255
396 531 0 0 0 255
357 18 0 0 0 255
406 65 0 0 0 255
175 369 0 0 0 255
357 417 0 0 0 255
318 286 0 0 0 255
171 508 0 0 0 255
251 64 0 0 0 255
271 174 0 0 0 255
225 218 0 0 0 255
229 578 0 0 0 255
431 363 0 0 0 255
346 8 0 0 0 255
392 134 0 0 0 255
188 636 0 0 0 255
416 384 0 0 0 255
399 197 0 0 0 255
235 -49 0 0 0 255
437 -21 0 0 0 255
259 138 0 0 0 255
193 98 0 0 0 255
471 114 0 0 0 255
453 603 0 0 0 255
179 78 0 0 0 255
344 28 0 0 0 255
314 386 0 0 0 255
450 232 0 0 0 255
281 51 0 0 0 255
201 97 0 0 0 255
299 66 0 0 0 255
211 153 0 0 0 255
271 101 0 0 0 255
229 -118 0 0 0 255
218 318 0 0 0 255
411 363 0 0 0 255
288 169 0 0 0 255
474 450 0 0 0 255
248 -12 0 0 0 255
399 410 0 0 0 255
281 214 0 0 0 255
377 279 0 0 0 255
448 133 0 0 0 255
414 463 0 0 0 255
186 448 0 0 0 255
282 212 0 0 0 255
321 367 0 0 0 255
166 508 0 0 0 255
253 360 0 0 0 255
366 166 0 0 0 255
402 403 0 0 0 255
351 297 0 0 0 255
236 345 0 0 0 255
288 384 0 0 0 255
207 -10 0 0 0 255
176 97 0 0 0 255
495 187 0 0 0 255
213 381 0 0 0 255
447 277 0 0 0 255
342 535 0 0 0 255
355 -135 0 0 0 255
349 193 0 0 0 255
310 330 0 0 0 255
459 400 0 0 0 255
483 575 0 0 0 255
185 160 0 0 0 255
235 -128 0 0 0 255
403 36 0 0 0 255
298 48 0 0 0 255
185 432 0 0 0 255
328 16 0 0 0 255
308 361 0 0 0 255
259 92 0 0 0 255
405 -97 0 0 0 255
404 56 0 0 0 255
430 9 0 0 0 255
154 2 0 0 0 255
344 22 0 0 0 255
278 172 0 0 0 255
275 378 0 0 0 255
373 360 0 0 0 255
415 -47 0 0 0 255
241 382 0 0 0 255
288 201 0 0 0 255
307 111 0 0 0 255
272 473 0 0 0 255
366 -21 0 0 0 255
140 0 0 0 0 255
217 289 0 0 0 255
348 467 0 0 0 255
276 222 0 0 0 255
163 392 0 0 0 255
170 342 0 0 0 255
359 614 0 0 0 255
186 506 0 0 0 255
496 541 0 0 0 255
161 365 0 0 0 255
392 18 0 0 0 255
391 -102 0 0 0 255
333 210 0 0 0 255
426 154 0 0 0 255
313 135 0 0 0 255
219 272 0 0 0 255
389 101 0 0 0 255
285 349 0 0 0 255
444 460 0 0 0 255
325 282 0 0 0 255
205 80 0 0 0 255
365 160 0 0 0 255
244 262 0 0 0 255
328 125 0 0 0 255
433 369 0 0 0 255
222 326 0 0 0 255
177 535 0 0 0 255
308 601 0 0 0 255
306 316 0 0 0 255
244 385 0 0 0 255
249 100 0 0 0 255
282 -58 0 0 0 255
244 130 0 0 0 255
379 392 0 0 0 255
310 447 0 0 0 255
358 -50 0 0 0 255
400 555 0 0 0 255
366 496 0 0 0 255
219 461 0 0 0 255
416 394 0 0 0 255
429 335 0 0 0 255
295 555 0 0 0 255
115 243 0 0 0 255
270 -176 0 0 0 255
141 252 0 0 0 255
339 186 0 0 0 255
453 599 0 0 0 255
275 441 0 0 0 255
344 430 0 0 0 255
192 395 0 0 0 255
346 46 0 0 0 255
393 234 0 0 0 255
196 -4 0 0 0 255
205 -4 0 0 0 255
337 420 0 0 0 255
169 332 0 0 0 255
317 614 0 0 0 255
158 -115 0 0 0 255
370 422 0 0 0 255
423 398 0 0 0 255
205 11 0 0 0 255
431 53 0 0 0 255
225 330 0 0 0 255
368 -46 0 0 0 255
287 199 0 0 0 255
274 379 0 0 0 255
392 484 0 0 0 255
267 40 0 0 0 255
466 615 0 0 0 255
103 251 0 0 0 255
197 44 0 0 0 255
146 515 0 0 0 255
297 361 0 0 0 255
216 374 0 0 0 255
429 -84 0 0 0 255
307 429 0 0 0 255
220 289 0 0 0 255
381 215 0 0 0 255
440 403 0 0 0 255
178 410 0 0 0 255
337 527 0 0 0 255
282 -10 0 0 0 255
288 -23 0 0 0 255
191 -78 0 0 0 255
251 280 0 0 0 255
188 283 0 0 0 255
379 458 0 0 0 255
537 645 0 0 0 255
428 516 0 0 0 255
304 65 0 0 0 255
424 307 0 0 0 255
407 569 0 0 0 255
445 98 0 0 0 255
249 21 0 0 0 255
280 413 0 0 0 255
205 83 0 0 0 255
243 81 0 0 0 255
249 169 0 0 0 255
288 386 0 0 0 255
211 341 0 0 0 255
206 164 0 0 0 255
194 320 0 0 0 255
288 194 0 0 0 255
427 439 0 0 0 255
265 454 0 0 0 255
133 477 0 0 0 255
98 505 0 0 0 255
352 128 0 0 0 255
390 25 0 0 0 255
486 112 0 0 0 255
455 505 0 0 0 255
286 435 0 0 0 255
349 550 0 0 0 255
235 377 0 0 0 255
274 611 0 0 0 255
329 110 0 0 0 255
363 360 0 0 0 255
432 340 0 0 0 255
467 -23 0 0 0 255
296 206 0 0 0 255
304 297 0 0 0 255
211 229 0 0 0 255
265 96 0 0 0 255
416 277 0 0 0 255
460 412 0 0 0 255
420 300 0 0 0 255
487 -119 0 0 0 255
367 452 0 0 0 255
401 390 0 0 0 255
201 482 0 0 0 255
258 8 0 0 0 255
373 385 0 0 0 255
200 -36 0 0 0 255
225 135 0 0 0 255
204 346 0 0 0 255
409 -14 0 0 0 255
419 431 0 0 0 255
406 476 0 0 0 255
485 512 0 0 0 255
413 408 0 0 0 255
196 168 0 0 0 255
315 296 0 0 0 255
418 541 0 0 0 255
294 537 0 0 0 255
396 278 0 0 0 255
229 207 0 0 0 255
478 20 0 0 0 255
236 208 0 0 0 255
431 139 0 0 0 255
161 495 0 0 0 255
205 286 0 0 0 255
285 100 0 0 0 255
402 114 0 0 0 255
168 -64 0 0 0 255
398 41 0 0 0 255
378 80 0 0 0 255
386 398 0 0 0 255
334 483 0 0 0 255
426 460 0 0 0 255
351 291 0 0 0 255
345 53 0 0 0 255
312 362 0 0 0 255
346 599 0 0 0 255
308 291 0 0 0 255
373 209 0 0 0 255
340 556 0 0 0 255
283 94 0 0 0 255
460 77 0 0 0 255
229 346 0 0 0 255
407 161 0 0 0 255
231 213 0 0 0 255
415 349 0 0 0 255
517 -101 0 0 0 255
258 139 0 0 0 255
333 91 0 0 0 255
411 476 0 0 0 255
475 -33 0 0 0 255
444 363 0 0 0 255
282 140 0 0 0 255
167 632 0 0 0 255
219 51 0 0 0 255
275 81 0 0 0 255
218 45 0 0 0 255
358 319 0 0 0 255
342 45 0 0 0 255
235 323 0 0 0 255
325 296 0 0 0 255
213 191 0 0 0 255
460 479 0 0 0 255
420 143 0 0 0 255
326 34 0 0 0 255
235 106 0 0 0 255
355 453 0 0 0 255
462 131 0 0 0 255
178 490 0 0 0 255
214 223 0 0 0 255
270 475 0 0 0 255
161 466 0 0 0 255
251 454 0 0 0 255
207 159 0 0 0 255
184 103 0 0 0 255
449 392 0 0 0 255
376 -13 0 0 0 255
206 477 0 0 0 255
373 437 0 0 0 255
