ply
format ascii 1.0
element vertex 500
property float x
property float y
property float z
property uchar red
property uchar green
property uchar blue
end_header
276 172 0 0 0 255
339 104 0 0 0 255
346 281 0 0 0 255
365 128 0 0 0 255
312 155 0 0 0 255
320 372 0 0 0 255
277 81 0 0 0 255
319 326 0 0 0 255
313 104 0 0 0 255
312 64 0 0 0 255
233 69 0 0 0 255
267 211 0 0 0 255
354 97 0 0 0 255
250 401 0 0 0 255
340 100 0 0 0 255
320 159 0 0 0 255
252 349 0 0 0 255
348 333 0 0 0 255
223 321 0 0 0 255
345 448 0 0 0 255
332 158 0 0 0 255
257 235 0 0 0 255
307 264 0 0 0 255
366 129 0 0 0 255
245 191 0 0 0 255
358 334 0 0 0 255
349 177 0 0 0 255
362 177 0 0 0 255
252 186 0 0 0 255
399 237 0 0 0 255
390 235 0 0 0 255
311 260 0 0 0 255
261 28 0 0 0 255
276 386 0 0 0 255
392 64 0 0 0 255
223 248 0 0 0 255
248 230 0 0 0 255
387 282 0 0 0 255
348 77 0 0 0 255
288 258 0 0 0 255
235 420 0 0 0 255
342 224 0 0 0 255
301 145 0 0 0 255
248 366 0 0 0 255
309 378 0 0 0 255
376 179 0 0 0 255
393 192 0 0 0 255
281 138 0 0 0 255
393 322 0 0 0 255
274 397 0 0 0 255
290 394 0 0 0 255
302 310 0 0 0 255
273 145 0 0 0 255
277 423 0 0 0 255
341 238 0 0 0 255
340 311 0 0 0 255
270 332 0 0 0 255
271 297 0 0 0 255
390 126 0 0 0 255
279 399 0 0 0 255
248 253 0 0 0 255
394 169 0 0 0 255
392 351 0 0 0 255
331 81 0 0 0 255
308 321 0 0 0 255
396 375 0 0 0 255
300 371 0 0 0 255
233 139 0 0 0 255
294 258 0 0 0 255
260 200 0 0 0 255
243 160 0 0 0 255
252 93 0 0 0 255
329 155 0 0 0 255
276 196 0 0 0 255
336 308 0 0 0 255
303 37 0 0 0 255
369 383 0 0 0 255
265 224 0 0 0 255
306 297 0 0 0 255
363 426 0 0 0 255
241 242 0 0 0 255
297 353 0 0 0 255
421 382 0 0 0 255
287 108 0 0 0 255
412 199 0 0 0 255
308 318 0 0 0 255
308 229 0 0 0 255
353 428 0 0 0 255
221 403 0 0 0 255
306 111 0 0 0 255
265 387 0 0 0 255
247 434 0 0 0 255
326 329 0 0 0 255
373 226 0 0 0 255
323 384 0 0 0 255
293 417 0 0 0 255
310 162 0 0 0 255
336 363 0 0 0 255
280 227 0 0 0 255
326 339 0 0 0 255
393 352 0 0 0 255
250 116 0 0 0 255
347 107 0 0 0 255
223 97 0 0 0 255
282 241 0 0 0 255
372 383 0 0 0 255
227 123 0 0 0 255
255 303 0 0 0 255
220 371 0 0 0 255
365 250 0 0 0 255
386 241 0 0 0 255
356 361 0 0 0 255
248 74 0 0 0 255
286 165 0 0 0 255
354 188 0 0 0 255
229 157 0 0 0 255
300 241 0 0 0 255
280 308 0 0 0 255
274 180 0 0 0 255
397 283 0 0 0 255
331 57 0 0 0 255
378 89 0 0 0 255
328 296 0 0 0 255
321 368 0 0 0 255
407 116 0 0 0 255
261 266 0 0 0 255
255 103 0 0 0 255
326 216 0 0 0 255
393 183 0 0 0 255
416 151 0 0 0 255
265 330 0 0 0 255
267 126 0 0 0 255
350 163 0 0 0 255
307 238 0 0 0 255
327 249 0 0 0 255
281 156 0 0 0 255
320 149 0 0 0 255
257 334 0 0 0 255
317 211 0 0 0 255
323 169 0 0 0 255
234 232 0 0 0 255
368 145 0 0 0 255
372 179 0 0 0 255
345 350 0 0 0 255
318 296 0 0 0 255
250 275 0 0 0 255
280 180 0 0 0 255
250 65 0 0 0 255
329 291 0 0 0 255
343 421 0 0 0 255
289 315 0 0 0 255
421 268 0 0 0 255
380 390 0 0 0 255
365 148 0 0 0 255
320 271 0 0 0 255
285 337 0 0 0 255
305 92 0 0 0 255
407 334 0 0 0 255
389 271 0 0 0 255
316 123 0 0 0 255
424 38 0 0 0 255
387 62 0 0 0 255
411 256 0 0 0 255
274 345 0 0 0 255
408 121 0 0 0 255
274 122 0 0 0 255
342 317 0 0 0 255
276 114 0 0 0 255
248 269 0 0 0 255
348 96 0 0 0 255
374 124 0 0 0 255
305 104 0 0 0 255
295 194 0 0 0 255
390 316 0 0 0 255
347 378 0 0 0 255
378 299 0 0 0 255
250 363 0 0 0 255
422 162 0 0 0 255
353 194 0 0 0 255
245 227 0 0 0 255
382 185 0 0 0 255
292 403 0 0 0 255
382 195 0 0 0 255
388 319 0 0 0 255
279 99 0 0 0 255
330 337 0 0 0 255
302 401 0 0 0 255
293 390 0 0 0 255
299 395 0 0 0 255
313 257 0 0 0 255
403 68 0 0 0 255
322 160 0 0 0 255
279 250 0 0 0 255
262 81 0 0 0 255
343 271 0 0 0 255
272 341 0 0 0 255
213 74 0 0 0 255
307 268 0 0 0 255
346 235 0 0 0 255
404 244 0 0 0 255
237 285 0 0 0 255
398 371 0 0 0 255
303 79 0 0 0 255
365 323 0 0 0 255
244 327 0 0 0 255
324 130 0 0 0 255
279 153 0 0 0 255
254 340 0 0 0 255
398 342 0 0 0 255
360 105 0 0 0 255
390 370 0 0 0 255
353 343 0 0 0 255
356 63 0 0 0 255
316 332 0 0 0 255
348 366 0 0 0 255
283 223 0 0 0 255
322 28 0 0 0 255
377 118 0 0 0 255
250 292 0 0 0 255
391 401 0 0 0 255
289 304 0 0 0 255
326 221 0 0 0 255
353 172 0 0 0 255
321 421 0 0 0 255
376 159 0 0 0 255
298 71 0 0 0 255
351 325 0 0 0 255
365 109 0 0 0 255
341 156 0 0 0 255
258 98 0 0 0 255
307 369 0 0 0 255
290 231 0 0 0 255
319 340 0 0 0 255
341 232 0 0 0 255
390 226 0 0 0 255
357 243 0 0 0 255
341 316 0 0 0 255
371 203 0 0 0 255
308 131 0 0 0 255
373 62 0 0 0 255
308 285 0 0 0 255
261 355 0 0 0 255
354 86 0 0 0 255
340 318 0 0 0 255
338 213 0 0 0 255
405 346 0 0 0 255
365 409 0 0 0 255
280 247 0 0 0 255
252 177 0 0 0 255
239 209 0 0 0 255
244 239 0 0 0 255
301 142 0 0 0 255
373 291 0 0 0 255
377 331 0 0 0 255
259 185 0 0 0 255
281 100 0 0 0 255
379 298 0 0 0 255
351 379 0 0 0 255
260 350 0 0 0 255
373 121 0 0 0 255
366 65 0 0 0 255
399 262 0 0 0 255
342 97 0 0 0 255
319 146 0 0 0 255
355 271 0 0 0 255
388 366 0 0 0 255
305 187 0 0 0 255
359 276 0 0 0 255
401 188 0 0 0 255
213 257 0 0 0 255
272 304 0 0 0 255
373 286 0 0 0 255
361 166 0 0 0 255
288 274 0 0 0 255
299 114 0 0 0 255
315 70 0 0 0 255
368 249 0 0 0 255
225 355 0 0 0 255
295 69 0 0 0 255
248 200 0 0 0 255
331 152 0 0 0 255
320 206 0 0 0 255
333 366 0 0 0 255
330 247 0 0 0 255
310 219 0 0 0 255
324 370 0 0 0 255
293 188 0 0 0 255
403 290 0 0 0 255
414 422 0 0 0 255
392 174 0 0 0 255
271 409 0 0 0 255
349 178 0 0 0 255
286 208 0 0 0 255
357 61 0 0 0 255
339 147 0 0 0 255
234 80 0 0 0 255
334 389 0 0 0 255
347 371 0 0 0 255
313 242 0 0 0 255
321 69 0 0 0 255
337 424 0 0 0 255
406 412 0 0 0 255
298 288 0 0 0 255
268 386 0 0 0 255
306 236 0 0 0 255
294 201 0 0 0 255
357 77 0 0 0 255
340 403 0 0 0 255
315 355 0 0 0 255
361 403 0 0 0 255
310 322 0 0 0 255
261 355 0 0 0 255
250 174 0 0 0 255
363 404 0 0 0 255
365 389 0 0 0 255
337 252 0 0 0 255
276 194 0 0 0 255
357 88 0 0 0 255
245 380 0 0 0 255
223 437 0 0 0 255
331 175 0 0 0 255
407 210 0 0 0 255
368 385 0 0 0 255
286 224 0 0 0 255
300 359 0 0 0 255
342 94 0 0 0 255
266 118 0 0 0 255
376 212 0 0 0 255
370 58 0 0 0 255
243 295 0 0 0 255
245 342 0 0 0 255
349 190 0 0 0 255
314 301 0 0 0 255
336 250 0 0 0 255
381 351 0 0 0 255
260 290 0 0 0 255
285 95 0 0 0 255
383 283 0 0 0 255
365 38 0 0 0 255
351 335 0 0 0 255
313 297 0 0 0 255
236 285 0 0 0 255
276 342 0 0 0 255
310 195 0 0 0 255
281 274 0 0 0 255
270 256 0 0 0 255
310 339 0 0 0 255
344 163 0 0 0 255
354 328 0 0 0 255
274 230 0 0 0 255
369 294 0 0 0 255
324 95 0 0 0 255
360 341 0 0 0 255
410 185 0 0 0 255
330 44 0 0 0 255
282 267 0 0 0 255
219 278 0 0 0 255
261 227 0 0 0 255
234 208 0 0 0 255
248 170 0 0 0 255
328 38 0 0 0 255
324 354 0 0 0 255
378 56 0 0 0 255
290 320 0 0 0 255
258 118 0 0 0 255
382 353 0 0 0 255
324 67 0 0 0 255
258 202 0 0 0 255
400 238 0 0 0 255
394 58 0 0 0 255
357 81 0 0 0 255
241 340 0 0 0 255
377 223 0 0 0 255
288 337 0 0 0 255
398 293 0 0 0 255
307 156 0 0 0 255
309 307 0 0 0 255
350 74 0 0 0 255
314 319 0 0 0 255
277 287 0 0 0 255
287 78 0 0 0 255
263 138 0 0 0 255
241 60 0 0 0 255
237 56 0 0 0 255
266 159 0 0 0 255
418 154 0 0 0 255
313 264 0 0 0 255
281 317 0 0 0 255
356 277 0 0 0 255
330 98 0 0 0 255
254 352 0 0 0 255
268 303 0 0 0 255
391 139 0 0 0 255
375 140 0 0 0 255
326 271 0 0 0 255
401 307 0 0 0 255
266 106 0 0 0 255
331 120 0 0 0 255
309 238 0 0 0 255
389 122 0 0 0 255
286 153 0 0 0 255
328 141 0 0 0 255
306 365 0 0 0 255
300 82 0 0 0 255
310 312 0 0 0 255
263 75 0 0 0 255
385 438 0 0 0 255
381 403 0 0 0 255
284 439 0 0 0 255
270 349 0 0 0 255
313 100 0 0 0 255
334 94 0 0 0 255
310 235 0 0 0 255
374 97 0 0 0 255
373 124 0 0 0 255
356 177 0 0 0 255
248 226 0 0 0 255
332 352 0 0 0 255
403 234 0 0 0 255
235 98 0 0 0 255
240 92 0 0 0 255
282 191 0 0 0 255
336 62 0 0 0 255
259 405 0 0 0 255
342 326 0 0 0 255
318 397 0 0 0 255
372 180 0 0 0 255
294 242 0 0 0 255
317 322 0 0 0 255
348 363 0 0 0 255
367 201 0 0 0 255
371 222 0 0 0 255
268 329 0 0 0 255
298 349 0 0 0 255
259 179 0 0 0 255
253 276 0 0 0 255
355 238 0 0 0 255
378 215 0 0 0 255
298 275 0 0 0 255
248 288 0 0 0 255
309 355 0 0 0 255
218 193 0 0 0 255
328 380 0 0 0 255
287 285 0 0 0 255
370 389 0 0 0 255
313 132 0 0 0 255
405 303 0 0 0 255
313 178 0 0 0 255
280 203 0 0 0 255
220 406 0 0 0 255
276 279 0 0 0 255
376 384 0 0 0 255
240 231 0 0 0 255
320 39 0 0 0 255
280 422 0 0 0 255
339 386 0 0 0 255
372 230 0 0 0 255
378 382 0 0 0 255
270 19 0 0 0 255
362 180 0 0 0 255
291 244 0 0 0 255
265 150 0 0 0 255
377 219 0 0 0 255
262 151 0 0 0 255
257 223 0 0 0 255
363 338 0 0 0 255
341 140 0 0 0 255
395 61 0 0 0 255
272 156 0 0 0 255
251 294 0 0 0 255
316 252 0 0 0 255
258 240 0 0 0 255
312 324 0 0 0 255
276 172 0 0 0 255
224 259 0 0 0 255
408 188 0 0 0 255
396 300 0 0 0 255
376 293 0 0 0 255
246 317 0 0 0 255
313 270 0 0 0 255
309 171 0 0 0 255
262 139 0 0 0 255
375 162 0 0 0 255
346 341 0 0 0 255
336 139 0 0 0 255
423 133 0 0 0 255
318 194 0 0 0 255
241 122 0 0 0 255
348 454 0 0 0 255
364 439 0 0 0 255
403 132 0 0 0 255
308 323 0 0 0 255
287 233 0 0 0 255
255 128 0 0 0 255
390 334 0 0 0 255
373 342 0 0 0 255
234 125 0 0 0 255
357 313 0 0 0 255
301 344 0 0 0 255
365 338 0 0 0 255
