ply
format ascii 1.0
element vertex 500
property float x
property float y
property float z
property uchar red
property uchar green
property uchar blue
end_header
393 168 0 0 0 255
374 304 0 0 0 255
248 254 0 0 0 255
273 348 0 0 0 255
301 106 0 0 0 255
248 249 0 0 0 255
335 411 0 0 0 255
310 375 0 0 0 255
326 55 0 0 0 255
423 431 0 0 0 255
299 389 0 0 0 255
283 49 0 0 0 255
383 90 0 0 0 255
318 359 0 0 0 255
232 58 0 0 0 255
233 278 0 0 0 255
407 349 0 0 0 255
354 421 0 0 0 255
388 161 0 0 0 255
309 166 0 0 0 255
272 280 0 0 0 255
245 105 0 0 0 255
428 91 0 0 0 255
264 458 0 0 0 255
352 177 0 0 0 255
294 243 0 0 0 255
383 388 0 0 0 255
367 275 0 0 0 255
333 166 0 0 0 255
394 379 0 0 0 255
356 309 0 0 0 255
282 234 0 0 0 255
340 77 0 0 0 255
405 180 0 0 0 255
247 425 0 0 0 255
257 149 0 0 0 255
311 59 0 0 0 255
277 360 0 0 0 255
388 392 0 0 0 255
315 299 0 0 0 255
320 368 0 0 0 255
394 115 0 0 0 255
241 226 0 0 0 255
282 224 0 0 0 255
242 75 0 0 0 255
277 168 0 0 0 255
289 84 0 0 0 255
305 257 0 0 0 255
317 282 0 0 0 255
255 360 0 0 0 255
310 410 0 0 0 255
384 174 0 0 0 255
361 220 0 0 0 255
261 347 0 0 0 255
328 78 0 0 0 255
285 212 0 0 0 255
370 120 0 0 0 255
248 36 0 0 0 255
326 362 0 0 0 255
281 208 0 0 0 255
277 339 0 0 0 255
392 241 0 0 0 255
407 209 0 0 0 255
313 126 0 0 0 255
402 434 0 0 0 255
289 120 0 0 0 255
381 262 0 0 0 255
295 395 0 0 0 255
217 195 0 0 0 255
374 88 0 0 0 255
373 237 0 0 0 255
342 171 0 0 0 255
287 306 0 0 0 255
375 249 0 0 0 255
368 185 0 0 0 255
278 154 0 0 0 255
395 131 0 0 0 255
273 387 0 0 0 255
265 257 0 0 0 255
270 162 0 0 0 255
320 111 0 0 0 255
308 119 0 0 0 255
382 204 0 0 0 255
269 406 0 0 0 255
372 364 0 0 0 255
412 54 0 0 0 255
376 148 0 0 0 255
324 241 0 0 0 255
327 238 0 0 0 255
397 231 0 0 0 255
256 92 0 0 0 255
376 196 0 0 0 255
278 152 0 0 0 255
333 237 0 0 0 255
225 180 0 0 0 255
275 250 0 0 0 255
221 251 0 0 0 255
363 139 0 0 0 255
311 218 0 0 0 255
261 66 0 0 0 255
349 295 0 0 0 255
385 365 0 0 0 255
282 299 0 0 0 255
231 63 0 0 0 255
253 294 0 0 0 255
396 309 0 0 0 255
406 280 0 0 0 255
356 126 0 0 0 255
378 398 0 0 0 255
330 398 0 0 0 255
352 300 0 0 0 255
293 83 0 0 0 255
352 291 0 0 0 255
376 153 0 0 0 255
214 33 0 0 0 255
239 288 0 0 0 255
265 80 0 0 0 255
219 148 0 0 0 255
379 236 0 0 0 255
272 312 0 0 0 255
427 168 0 0 0 255
393 341 0 0 0 255
263 245 0 0 0 255
251 370 0 0 0 255
321 174 0 0 0 255
324 263 0 0 0 255
314 406 0 0 0 255
378 311 0 0 0 255
224 89 0 0 0 255
334 294 0 0 0 255
317 154 0 0 0 255
391 193 0 0 0 255
245 236 0 0 0 255
417 58 0 0 0 255
377 295 0 0 0 255
380 91 0 0 0 255
367 183 0 0 0 255
401 367 0 0 0 255
246 190 0 0 0 255
364 212 0 0 0 255
323 359 0 0 0 255
299 210 0 0 0 255
330 428 0 0 0 255
310 75 0 0 0 255
326 92 0 0 0 255
315 179 0 0 0 255
303 147 0 0 0 255
263 200 0 0 0 255
346 340 0 0 0 255
423 157 0 0 0 255
381 251 0 0 0 255
217 94 0 0 0 255
364 145 0 0 0 255
269 102 0 0 0 255
392 253 0 0 0 255
384 127 0 0 0 255
422 359 0 0 0 255
274 202 0 0 0 255
314 80 0 0 0 255
304 431 0 0 0 255
374 318 0 0 0 255
249 320 0 0 0 255
331 116 0 0 0 255
242 176 0 0 0 255
381 350 0 0 0 255
365 344 0 0 0 255
281 406 0 0 0 255
374 356 0 0 0 255
363 88 0 0 0 255
420 36 0 0 0 255
252 339 0 0 0 255
293 304 0 0 0 255
350 159 0 0 0 255
262 200 0 0 0 255
316 338 0 0 0 255
361 194 0 0 0 255
286 33 0 0 0 255
250 340 0 0 0 255
368 217 0 0 0 255
347 43 0 0 0 255
364 229 0 0 0 255
236 219 0 0 0 255
325 281 0 0 0 255
328 182 0 0 0 255
344 275 0 0 0 255
277 94 0 0 0 255
320 338 0 0 0 255
352 197 0 0 0 255
385 116 0 0 0 255
378 40 0 0 0 255
235 73 0 0 0 255
252 260 0 0 0 255
339 154 0 0 0 255
312 174 0 0 0 255
339 89 0 0 0 255
264 325 0 0 0 255
386 327 0 0 0 255
359 382 0 0 0 255
371 283 0 0 0 255
264 164 0 0 0 255
370 148 0 0 0 255
300 367 0 0 0 255
388 261 0 0 0 255
381 174 0 0 0 255
291 143 0 0 0 255
418 238 0 0 0 255
303 426 0 0 0 255
323 63 0 0 0 255
220 274 0 0 0 255
337 182 0 0 0 255
299 280 0 0 0 255
363 192 0 0 0 255
344 129 0 0 0 255
400 380 0 0 0 255
315 234 0 0 0 255
259 173 0 0 0 255
264 270 0 0 0 255
364 409 0 0 0 255
284 53 0 0 0 255
361 298 0 0 0 255
337 385 0 0 0 255
278 389 0 0 0 255
302 91 0 0 0 255
323 248 0 0 0 255
283 176 0 0 0 255
391 326 0 0 0 255
424 438 0 0 0 255
315 164 0 0 0 255
288 392 0 0 0 255
319 104 0 0 0 255
378 82 0 0 0 255
276 412 0 0 0 255
330 403 0 0 0 255
305 315 0 0 0 255
249 260 0 0 0 255
253 326 0 0 0 255
292 150 0 0 0 255
226 64 0 0 0 255
342 184 0 0 0 255
243 371 0 0 0 255
318 79 0 0 0 255
271 158 0 0 0 255
279 58 0 0 0 255
265 174 0 0 0 255
405 320 0 0 0 255
387 380 0 0 0 255
265 215 0 0 0 255
308 312 0 0 0 255
281 216 0 0 0 255
347 433 0 0 0 255
344 345 0 0 0 255
335 242 0 0 0 255
404 446 0 0 0 255
389 128 0 0 0 255
401 343 0 0 0 255
341 276 0 0 0 255
345 165 0 0 0 255
267 227 0 0 0 255
370 389 0 0 0 255
331 265 0 0 0 255
247 170 0 0 0 255
306 401 0 0 0 255
346 349 0 0 0 255
284 415 0 0 0 255
291 166 0 0 0 255
263 328 0 0 0 255
410 370 0 0 0 255
336 129 0 0 0 255
372 81 0 0 0 255
338 269 0 0 0 255
399 23 0 0 0 255
375 266 0 0 0 255
331 297 0 0 0 255
363 278 0 0 0 255
383 289 0 0 0 255
395 387 0 0 0 255
325 186 0 0 0 255
351 330 0 0 0 255
319 264 0 0 0 255
301 390 0 0 0 255
335 197 0 0 0 255
277 413 0 0 0 255
382 217 0 0 0 255
312 291 0 0 0 255
265 194 0 0 0 255
281 65 0 0 0 255
368 209 0 0 0 255
379 133 0 0 0 255
276 378 0 0 0 255
355 214 0 0 0 255
318 219 0 0 0 255
416 42 0 0 0 255
331 389 0 0 0 255
414 161 0 0 0 255
399 414 0 0 0 255
385 319 0 0 0 255
321 314 0 0 0 255
322 108 0 0 0 255
403 388 0 0 0 255
236 315 0 0 0 255
298 330 0 0 0 255
426 417 0 0 0 255
246 148 0 0 0 255
294 289 0 0 0 255
330 54 0 0 0 255
247 252 0 0 0 255
217 283 0 0 0 255
390 259 0 0 0 255
338 72 0 0 0 255
398 217 0 0 0 255
307 300 0 0 0 255
360 161 0 0 0 255
394 139 0 0 0 255
407 272 0 0 0 255
402 367 0 0 0 255
280 257 0 0 0 255
301 298 0 0 0 255
409 256 0 0 0 255
357 256 0 0 0 255
265 416 0 0 0 255
229 349 0 0 0 255
262 297 0 0 0 255
318 231 0 0 0 255
353 308 0 0 0 255
407 412 0 0 0 255
401 360 0 0 0 255
238 418 0 0 0 255
255 62 0 0 0 255
333 171 0 0 0 255
358 230 0 0 0 255
284 307 0 0 0 255
256 362 0 0 0 255
257 386 0 0 0 255
361 250 0 0 0 255
250 388 0 0 0 255
362 362 0 0 0 255
316 267 0 0 0 255
301 71 0 0 0 255
354 168 0 0 0 255
367 75 0 0 0 255
252 195 0 0 0 255
354 290 0 0 0 255
272 109 0 0 0 255
271 293 0 0 0 255
314 181 0 0 0 255
246 276 0 0 0 255
353 168 0 0 0 255
366 301 0 0 0 255
353 153 0 0 0 255
356 254 0 0 0 255
280 335 0 0 0 255
328 305 0 0 0 255
406 111 0 0 0 255
300 347 0 0 0 255
343 99 0 0 0 255
296 110 0 0 0 255
293 104 0 0 0 255
391 172 0 0 0 255
274 200 0 0 0 255
267 337 0 0 0 255
413 410 0 0 0 255
335 332 0 0 0 255
392 92 0 0 0 255
264 217 0 0 0 255
337 207 0 0 0 255
383 312 0 0 0 255
365 265 0 0 0 255
363 74 0 0 0 255
380 285 0 0 0 255
365 348 0 0 0 255
396 213 0 0 0 255
366 140 0 0 0 255
383 239 0 0 0 255
342 283 0 0 0 255
315 81 0 0 0 255
227 275 0 0 0 255
349 236 0 0 0 255
329 308 0 0 0 255
228 397 0 0 0 255
306 200 0 0 0 255
296 372 0 0 0 255
283 385 0 0 0 255
366 397 0 0 0 255
387 252 0 0 0 255
253 57 0 0 0 255
365 392 0 0 0 255
213 425 0 0 0 255
350 381 0 0 0 255
360 278 0 0 0 255
395 66 0 0 0 255
309 78 0 0 0 255
347 75 0 0 0 255
278 128 0 0 0 255
384 230 0 0 0 255
355 138 0 0 0 255
392 417 0 0 0 255
246 439 0 0 0 255
250 395 0 0 0 255
354 333 0 0 0 255
269 389 0 0 0 255
250 304 0 0 0 255
250 255 0 0 0 255
243 135 0 0 0 255
331 161 0 0 0 255
259 399 0 0 0 255
400 57 0 0 0 255
262 146 0 0 0 255
323 270 0 0 0 255
287 68 0 0 0 255
346 410 0 0 0 255
402 278 0 0 0 255
385 316 0 0 0 255
305 323 0 0 0 255
221 277 0 0 0 255
329 108 0 0 0 255
384 149 0 0 0 255
277 176 0 0 0 255
225 368 0 0 0 255
417 340 0 0 0 255
289 311 0 0 0 255
388 136 0 0 0 255
381 232 0 0 0 255
391 180 0 0 0 255
428 46 0 0 0 255
242 287 0 0 0 255
239 337 0 0 0 255
324 312 0 0 0 255
330 338 0 0 0 255
311 72 0 0 0 255
376 191 0 0 0 255
248 162 0 0 0 255
309 177 0 0 0 255
280 349 0 0 0 255
278 180 0 0 0 255
391 301 0 0 0 255
394 211 0 0 0 255
292 246 0 0 0 255
391 261 0 0 0 255
268 120 0 0 0 255
261 179 0 0 0 255
339 105 0 0 0 255
332 143 0 0 0 255
277 340 0 0 0 255
319 397 0 0 0 255
266 285 0 0 0 255
312 239 0 0 0 255
392 163 0 0 0 255
380 358 0 0 0 255
404 147 0 0 0 255
339 392 0 0 0 255
359 78 0 0 0 255
297 289 0 0 0 255
245 143 0 0 0 255
248 312 0 0 0 255
279 334 0 0 0 255
405 266 0 0 0 255
269 258 0 0 0 255
271 58 0 0 0 255
292 390 0 0 0 255
303 308 0 0 0 255
322 152 0 0 0 255
381 156 0 0 0 255
350 213 0 0 0 255
270 119 0 0 0 255
242 101 0 0 0 255
308 341 0 0 0 255
235 246 0 0 0 255
371 354 0 0 0 255
269 71 0 0 0 255
417 81 0 0 0 255
397 198 0 0 0 255
368 51 0 0 0 255
276 343 0 0 0 255
365 279 0 0 0 255
408 194 0 0 0 255
287 391 0 0 0 255
254 392 0 0 0 255
350 311 0 0 0 255
371 425 0 0 0 255
228 412 0 0 0 255
357 137 0 0 0 255
258 322 0 0 0 255
362 319 0 0 0 255
262 175 0 0 0 255
320 138 0 0 0 255
253 130 0 0 0 255
251 365 0 0 0 255
350 252 0 0 0 255
260 439 0 0 0 255
241 57 0 0 0 255
371 48 0 0 0 255
309 326 0 0 0 255
287 114 0 0 0 255
267 282 0 0 0 255
290 402 0 0 0 255
343 285 0 0 0 255
343 355 0 0 0 255
376 432 0 0 0 255
330 285 0 0 0 255
327 128 0 0 0 255
