ply
format ascii 1.0
element vertex 500
property float x
property float y
property float z
property uchar red
property uchar green
property uchar blue
end_header
295 380 0 0 0 255
337 111 0 0 0 255
342 217 0 0 0 255
359 132 0 0 0 255
413 382 0 0 0 255
254 353 0 0 0 255
422 122 0 0 0 255
389 286 0 0 0 255
256 377 0 0 0 255
313 97 0 0 0 255
365 139 0 0 0 255
368 96 0 0 0 255
357 334 0 0 0 255
400 218 0 0 0 255
388 136 0 0 0 255
322 317 0 0 0 255
216 150 0 0 0 255
338 382 0 0 0 255
330 334 0 0 0 255
318 371 0 0 0 255
403 374 0 0 0 255
371 177 0 0 0 255
410 346 0 0 0 255
348 171 0 0 0 255
285 333 0 0 0 255
243 337 0 0 0 255
383 201 0 0 0 255
402 117 0 0 0 255
398 263 0 0 0 255
241 455 0 0 0 255
298 333 0 0 0 255
367 328 0 0 0 255
264 177 0 0 0 255
240 119 0 0 0 255
309 354 0 0 0 255
322 328 0 0 0 255
340 242 0 0 0 255
311 300 0 0 0 255
393 378 0 0 0 255
252 234 0 0 0 255
356 254 0 0 0 255
320 219 0 0 0 255
287 168 0 0 0 255
327 77 0 0 0 255
226 392 0 0 0 255
271 132 0 0 0 255
228 149 0 0 0 255
245 338 0 0 0 255
398 62 0 0 0 255
318 252 0 0 0 255
253 111 0 0 0 255
356 412 0 0 0 255
369 82 0 0 0 255
286 421 0 0 0 255
349 103 0 0 0 255
402 85 0 0 0 255
382 347 0 0 0 255
328 218 0 0 0 255
357 360 0 0 0 255
216 74 0 0 0 255
394 296 0 0 0 255
405 449 0 0 0 255
365 445 0 0 0 255
327 74 0 0 0 255
218 82 0 0 0 255
302 227 0 0 0 255
402 340 0 0 0 255
365 349 0 0 0 255
351 232 0 0 0 255
252 240 0 0 0 255
387 129 0 0 0 255
376 340 0 0 0 255
268 278 0 0 0 255
313 155 0 0 0 255
286 246 0 0 0 255
267 269 0 0 0 255
323 301 0 0 0 255
305 128 0 0 0 255
245 353 0 0 0 255
251 397 0 0 0 255
304 90 0 0 0 255
344 235 0 0 0 255
413 355 0 0 0 255
401 302 0 0 0 255
297 326 0 0 0 255
431 467 0 0 0 255
284 324 0 0 0 255
363 278 0 0 0 255
374 156 0 0 0 255
328 71 0 0 0 255
331 386 0 0 0 255
330 404 0 0 0 255
383 168 0 0 0 255
377 144 0 0 0 255
255 102 0 0 0 255
239 178 0 0 0 255
366 238 0 0 0 255
339 211 0 0 0 255
339 354 0 0 0 255
249 294 0 0 0 255
290 105 0 0 0 255
262 366 0 0 0 255
252 364 0 0 0 255
334 396 0 0 0 255
335 387 0 0 0 255
298 233 0 0 0 255
342 102 0 0 0 255
294 110 0 0 0 255
308 188 0 0 0 255
323 300 0 0 0 255
324 293 0 0 0 255
228 356 0 0 0 255
338 191 0 0 0 255
300 313 0 0 0 255
248 420 0 0 0 255
354 228 0 0 0 255
260 342 0 0 0 255
388 76 0 0 0 255
328 340 0 0 0 255
357 165 0 0 0 255
349 344 0 0 0 255
283 389 0 0 0 255
354 204 0 0 0 255
253 163 0 0 0 255
354 121 0 0 0 255
338 354 0 0 0 255
250 421 0 0 0 255
279 103 0 0 0 255
295 254 0 0 0 255
326 452 0 0 0 255
309 134 0 0 0 255
367 206 0 0 0 255
286 303 0 0 0 255
411 303 0 0 0 255
289 87 0 0 0 255
326 414 0 0 0 255
292 451 0 0 0 255
296 289 0 0 0 255
333 179 0 0 0 255
316 121 0 0 0 255
265 43 0 0 0 255
311 414 0 0 0 255
251 243 0 0 0 255
392 386 0 0 0 255
366 116 0 0 0 255
374 231 0 0 0 255
336 294 0 0 0 255
376 200 0 0 0 255
249 260 0 0 0 255
269 171 0 0 0 255
388 273 0 0 0 255
360 152 0 0 0 255
258 99 0 0 0 255
254 233 0 0 0 255
386 396 0 0 0 255
390 88 0 0 0 255
296 165 0 0 0 255
324 206 0 0 0 255
298 303 0 0 0 255
358 269 0 0 0 255
394 151 0 0 0 255
384 118 0 0 0 255
293 236 0 0 0 255
410 238 0 0 0 255
355 399 0 0 0 255
239 394 0 0 0 255
291 183 0 0 0 255
402 132 0 0 0 255
253 289 0 0 0 255
382 187 0 0 0 255
377 335 0 0 0 255
282 58 0 0 0 255
391 86 0 0 0 255
311 282 0 0 0 255
303 96 0 0 0 255
330 264 0 0 0 255
394 94 0 0 0 255
294 248 0 0 0 255
334 279 0 0 0 255
285 351 0 0 0 255
250 199 0 0 0 255
359 180 0 0 0 255
284 372 0 0 0 255
350 93 0 0 0 255
235 255 0 0 0 255
332 240 0 0 0 255
381 164 0 0 0 255
364 24 0 0 0 255
306 381 0 0 0 255
382 290 0 0 0 255
235 286 0 0 0 255
266 366 0 0 0 255
217 447 0 0 0 255
379 394 0 0 0 255
318 297 0 0 0 255
414 131 0 0 0 255
301 214 0 0 0 255
361 165 0 0 0 255
229 151 0 0 0 255
251 170 0 0 0 255
239 135 0 0 0 255
287 466 0 0 0 255
319 192 0 0 0 255
273 84 0 0 0 255
232 195 0 0 0 255
264 86 0 0 0 255
253 278 0 0 0 255
307 205 0 0 0 255
261 178 0 0 0 255
347 91 0 0 0 255
376 139 0 0 0 255
283 400 0 0 0 255
251 230 0 0 0 255
305 290 0 0 0 255
283 377 0 0 0 255
278 317 0 0 0 255
305 359 0 0 0 255
399 332 0 0 0 255
283 364 0 0 0 255
293 217 0 0 0 255
363 256 0 0 0 255
317 309 0 0 0 255
398 206 0 0 0 255
371 163 0 0 0 255
372 409 0 0 0 255
307 120 0 0 0 255
382 343 0 0 0 255
250 195 0 0 0 255
418 338 0 0 0 255
267 112 0 0 0 255
364 101 0 0 0 255
390 39 0 0 0 255
243 345 0 0 0 255
365 393 0 0 0 255
329 318 0 0 0 255
228 328 0 0 0 255
323 124 0 0 0 255
319 114 0 0 0 255
342 351 0 0 0 255
339 132 0 0 0 255
237 212 0 0 0 255
359 60 0 0 0 255
262 166 0 0 0 255
396 258 0 0 0 255
419 255 0 0 0 255
216 219 0 0 0 255
385 220 0 0 0 255
311 326 0 0 0 255
276 312 0 0 0 255
336 195 0 0 0 255
327 205 0 0 0 255
278 98 0 0 0 255
297 322 0 0 0 255
387 348 0 0 0 255
292 48 0 0 0 255
280 210 0 0 0 255
298 165 0 0 0 255
351 281 0 0 0 255
376 304 0 0 0 255
330 110 0 0 0 255
365 286 0 0 0 255
288 396 0 0 0 255
307 373 0 0 0 255
370 270 0 0 0 255
342 291 0 0 0 255
378 164 0 0 0 255
361 262 0 0 0 255
336 318 0 0 0 255
363 150 0 0 0 255
373 198 0 0 0 255
323 370 0 0 0 255
297 367 0 0 0 255
236 73 0 0 0 255
302 414 0 0 0 255
363 293 0 0 0 255
235 135 0 0 0 255
367 140 0 0 0 255
266 158 0 0 0 255
241 264 0 0 0 255
380 353 0 0 0 255
282 221 0 0 0 255
355 400 0 0 0 255
303 277 0 0 0 255
399 283 0 0 0 255
292 49 0 0 0 255
352 354 0 0 0 255
419 248 0 0 0 255
385 146 0 0 0 255
368 306 0 0 0 255
237 145 0 0 0 255
338 133 0 0 0 255
366 255 0 0 0 255
294 77 0 0 0 255
248 394 0 0 0 255
353 413 0 0 0 255
266 280 0 0 0 255
382 380 0 0 0 255
273 92 0 0 0 255
408 310 0 0 0 255
342 273 0 0 0 255
245 376 0 0 0 255
386 372 0 0 0 255
346 184 0 0 0 255
228 20 0 0 0 255
335 221 0 0 0 255
356 82 0 0 0 255
250 340 0 0 0 255
326 66 0 0 0 255
347 376 0 0 0 255
349 365 0 0 0 255
320 100 0 0 0 255
380 312 0 0 0 255
222 102 0 0 0 255
249 112 0 0 0 255
245 244 0 0 0 255
373 154 0 0 0 255
356 325 0 0 0 255
289 332 0 0 0 255
250 203 0 0 0 255
377 94 0 0 0 255
257 332 0 0 0 255
392 178 0 0 0 255
273 400 0 0 0 255
248 235 0 0 0 255
329 124 0 0 0 255
347 61 0 0 0 255
401 293 0 0 0 255
290 266 0 0 0 255
300 263 0 0 0 255
335 257 0 0 0 255
412 206 0 0 0 255
317 296 0 0 0 255
404 181 0 0 0 255
321 380 0 0 0 255
356 222 0 0 0 255
299 321 0 0 0 255
372 277 0 0 0 255
356 241 0 0 0 255
315 97 0 0 0 255
382 147 0 0 0 255
260 311 0 0 0 255
387 130 0 0 0 255
323 235 0 0 0 255
301 176 0 0 0 255
320 202 0 0 0 255
262 323 0 0 0 255
251 115 0 0 0 255
238 202 0 0 0 255
242 224 0 0 0 255
292 404 0 0 0 255
381 271 0 0 0 255
323 189 0 0 0 255
383 325 0 0 0 255
393 57 0 0 0 255
367 180 0 0 0 255
326 132 0 0 0 255
360 119 0 0 0 255
322 359 0 0 0 255
252 138 0 0 0 255
234 257 0 0 0 255
398 226 0 0 0 255
346 275 0 0 0 255
415 156 0 0 0 255
331 281 0 0 0 255
265 69 0 0 0 255
380 367 0 0 0 255
380 106 0 0 0 255
379 89 0 0 0 255
384 239 0 0 0 255
289 108 0 0 0 255
348 192 0 0 0 255
348 280 0 0 0 255
340 316 0 0 0 255
306 291 0 0 0 255
245 304 0 0 0 255
367 362 0 0 0 255
360 347 0 0 0 255
357 113 0 0 0 255
252 148 0 0 0 255
310 68 0 0 0 255
325 167 0 0 0 255
380 429 0 0 0 255
255 184 0 0 0 255
323 228 0 0 0 255
304 362 0 0 0 255
292 247 0 0 0 255
264 262 0 0 0 255
267 298 0 0 0 255
382 94 0 0 0 255
422 134 0 0 0 255
351 188 0 0 0 255
373 188 0 0 0 255
386 56 0 0 0 255
289 112 0 0 0 255
312 71 0 0 0 255
314 339 0 0 0 255
284 123 0 0 0 255
329 417 0 0 0 255
262 146 0 0 0 255
270 362 0 0 0 255
345 351 0 0 0 255
416 95 0 0 0 255
400 373 0 0 0 255
256 267 0 0 0 255
395 241 0 0 0 255
411 41 0 0 0 255
366 371 0 0 0 255
300 137 0 0 0 255
248 371 0 0 0 255
353 382 0 0 0 255
361 289 0 0 0 255
360 446 0 0 0 255
251 189 0 0 0 255
414 174 0 0 0 255
357 294 0 0 0 255
270 408 0 0 0 255
251 198 0 0 0 255
357 147 0 0 0 255
387 231 0 0 0 255
234 192 0 0 0 255
346 215 0 0 0 255
300 178 0 0 0 255
297 183 0 0 0 255
264 288 0 0 0 255
390 348 0 0 0 255
257 216 0 0 0 255
269 312 0 0 0 255
367 83 0 0 0 255
317 196 0 0 0 255
292 351 0 0 0 255
393 459 0 0 0 255
346 246 0 0 0 255
397 318 0 0 0 255
303 279 0 0 0 255
349 31 0 0 0 255
242 342 0 0 0 255
304 259 0 0 0 255
271 57 0 0 0 255
421 123 0 0 0 255
343 251 0 0 0 255
357 393 0 0 0 255
402 202 0 0 0 255
295 100 0 0 0 255
300 97 0 0 0 255
309 118 0 0 0 255
267 289 0 0 0 255
332 100 0 0 0 255
218 125 0 0 0 255
298 228 0 0 0 255
410 234 0 0 0 255
298 66 0 0 0 255
362 223 0 0 0 255
374 137 0 0 0 255
275 384 0 0 0 255
348 259 0 0 0 255
374 279 0 0 0 255
295 175 0 0 0 255
320 352 0 0 0 255
234 58 0 0 0 255
344 186 0 0 0 255
241 362 0 0 0 255
269 282 0 0 0 255
311 287 0 0 0 255
418 198 0 0 0 255
332 385 0 0 0 255
238 405 0 0 0 255
365 159 0 0 0 255
349 240 0 0 0 255
280 387 0 0 0 255
301 388 0 0 0 255
416 148 0 0 0 255
334 261 0 0 0 255
376 194 0 0 0 255
367 349 0 0 0 255
237 292 0 0 0 255
262 172 0 0 0 255
402 60 0 0 0 255
317 225 0 0 0 255
242 330 0 0 0 255
365 95 0 0 0 255
390 427 0 0 0 255
312 181 0 0 0 255
368 238 0 0 0 255
247 185 0 0 0 255
343 178 0 0 0 255
228 184 0 0 0 255
365 247 0 0 0 255
348 98 0 0 0 255
273 193 0 0 0 255
312 346 0 0 0 255
365 431 0 0 0 255
243 342 0 0 0 255
317 384 0 0 0 255
276 251 0 0 0 255
328 355 0 0 0 255
338 326 0 0 0 255
406 412 0 0 0 255
361 319 0 0 0 255
265 104 0 0 0 255
398 173 0 0 0 255
